<svg width="83" height="93" viewBox="0 0 83 93" fill="none" xmlns="http://www.w3.org/2000/svg">
<path d="M41.682 91.0984C64.7992 86.1383 77.4787 73.2421 81.682 25.5388C73.0894 25.5388 69.4598 18.9253 68.719 15.6186L41.682 1.81653" stroke="black" stroke-width="2"/>
<path d="M41.682 91.0984C64.7992 86.1383 77.4787 73.2421 81.682 25.5388C73.0894 25.5388 69.4598 18.9253 68.719 15.6186L41.682 1.81653" stroke="black" stroke-width="2"/>
<path d="M42 91.0984C18.8829 86.1383 6.20332 73.2421 2 25.5388C10.5926 25.5388 14.2222 18.9253 14.963 15.6186L42 1.81653" stroke="black" stroke-width="2"/>
<path d="M42 91.0984C18.8829 86.1383 6.20332 73.2421 2 25.5388C10.5926 25.5388 14.2222 18.9253 14.963 15.6186L42 1.81653" stroke="black" stroke-width="2"/>
<path d="M41.8603 86.1383C62.1685 81.7293 73.3074 70.266 77 27.8631C69.4515 27.8631 66.2629 21.9844 65.6121 19.0451L41.8603 6.77661" stroke="black" stroke-width="2"/>
<path d="M41.8603 86.1383C62.1685 81.7293 73.3074 70.266 77 27.8631C69.4515 27.8631 66.2629 21.9844 65.6121 19.0451L41.8603 6.77661" stroke="black" stroke-width="2"/>
<path d="M42.1397 86.1383C21.8315 81.7293 10.6926 70.266 7 27.8631C14.5485 27.8631 17.7371 21.9844 18.3879 19.0451L42.1397 6.77661" stroke="black" stroke-width="2"/>
<path d="M42.1397 86.1383C21.8315 81.7293 10.6926 70.266 7 27.8631C14.5485 27.8631 17.7371 21.9844 18.3879 19.0451L42.1397 6.77661" stroke="black" stroke-width="2"/>
<path d="M25.2462 24.1812H23.9181C23.8802 23.9634 23.8103 23.7704 23.7085 23.6023C23.6067 23.4319 23.4801 23.2875 23.3286 23.1691C23.1771 23.0507 23.0042 22.9619 22.8101 22.9028C22.6183 22.8412 22.4112 22.8104 22.1887 22.8104C21.7933 22.8104 21.4429 22.9099 21.1375 23.1087C20.8321 23.3052 20.593 23.594 20.4202 23.9752C20.2474 24.354 20.161 24.8168 20.161 25.3637C20.161 25.92 20.2474 26.3888 20.4202 26.7699C20.5954 27.1487 20.8345 27.4352 21.1375 27.6293C21.4429 27.8211 21.7921 27.917 22.1851 27.917C22.4029 27.917 22.6065 27.8886 22.7959 27.8317C22.9877 27.7726 23.1593 27.6861 23.3108 27.5725C23.4647 27.4589 23.5937 27.3192 23.6979 27.1535C23.8044 26.9878 23.8778 26.7984 23.9181 26.5853L25.2462 26.5924C25.1965 26.938 25.0887 27.2624 24.923 27.5654C24.7597 27.8684 24.5454 28.136 24.2803 28.368C24.0151 28.5976 23.705 28.7775 23.3499 28.9077C22.9948 29.0356 22.6006 29.0995 22.1673 29.0995C21.5281 29.0995 20.9576 28.9515 20.4557 28.6556C19.9538 28.3597 19.5584 27.9324 19.2696 27.3736C18.9808 26.8149 18.8364 26.1449 18.8364 25.3637C18.8364 24.5801 18.982 23.9101 19.2732 23.3538C19.5644 22.795 19.9609 22.3677 20.4628 22.0718C20.9647 21.7759 21.5329 21.6279 22.1673 21.6279C22.5722 21.6279 22.9486 21.6847 23.2966 21.7984C23.6446 21.912 23.9548 22.0789 24.227 22.2991C24.4993 22.5169 24.723 22.7844 24.8982 23.1016C25.0757 23.4165 25.1917 23.7763 25.2462 24.1812ZM27.6814 21.7273V29.0001H26.3959V21.7273H27.6814ZM30.5729 29.1101C30.2272 29.1101 29.9159 29.0486 29.6389 28.9255C29.3643 28.8 29.1465 28.6154 28.9855 28.3715C28.8269 28.1277 28.7476 27.827 28.7476 27.4695C28.7476 27.1618 28.8044 26.9073 28.9181 26.706C29.0317 26.5048 29.1868 26.3438 29.3833 26.2231C29.5798 26.1023 29.8011 26.0112 30.0473 25.9496C30.2959 25.8857 30.5528 25.8395 30.8179 25.8111C31.1375 25.778 31.3968 25.7484 31.5956 25.7224C31.7945 25.694 31.9389 25.6513 32.0289 25.5945C32.1212 25.5353 32.1673 25.4442 32.1673 25.3211V25.2998C32.1673 25.0323 32.088 24.8251 31.9294 24.6783C31.7708 24.5315 31.5423 24.4582 31.2441 24.4582C30.9292 24.4582 30.6794 24.5268 30.4948 24.6641C30.3125 24.8014 30.1894 24.9636 30.1254 25.1506L28.9252 24.9802C29.0199 24.6487 29.1761 24.3717 29.3939 24.1492C29.6117 23.9243 29.878 23.7562 30.1929 23.6449C30.5078 23.5313 30.8558 23.4745 31.2369 23.4745C31.4997 23.4745 31.7613 23.5053 32.0218 23.5668C32.2822 23.6284 32.5201 23.7302 32.7355 23.8722C32.951 24.0119 33.1238 24.2025 33.254 24.444C33.3866 24.6854 33.4529 24.9873 33.4529 25.3495V29.0001H32.2171V28.2508H32.1744C32.0963 28.4023 31.9862 28.5443 31.8442 28.6769C31.7045 28.8071 31.5281 28.9125 31.3151 28.993C31.1044 29.0711 30.857 29.1101 30.5729 29.1101ZM30.9067 28.1655C31.1647 28.1655 31.3885 28.1146 31.5779 28.0128C31.7673 27.9087 31.9128 27.7714 32.0146 27.6009C32.1188 27.4305 32.1709 27.2446 32.1709 27.0434V26.4006C32.1307 26.4338 32.062 26.4645 31.9649 26.493C31.8702 26.5214 31.7637 26.5462 31.6453 26.5675C31.527 26.5888 31.4098 26.6078 31.2938 26.6244C31.1778 26.6409 31.0771 26.6551 30.9919 26.667C30.8002 26.693 30.6285 26.7356 30.477 26.7948C30.3255 26.854 30.2059 26.9369 30.1183 27.0434C30.0307 27.1476 29.9869 27.2825 29.9869 27.4482C29.9869 27.685 30.0734 27.8637 30.2462 27.9844C30.419 28.1052 30.6392 28.1655 30.9067 28.1655ZM39.0566 24.9873L37.8847 25.1151C37.8515 24.9967 37.7935 24.8855 37.7107 24.7813C37.6302 24.6771 37.5213 24.5931 37.384 24.5292C37.2467 24.4653 37.0786 24.4333 36.8797 24.4333C36.6122 24.4333 36.3873 24.4913 36.205 24.6073C36.0251 24.7233 35.9363 24.8736 35.9387 25.0583C35.9363 25.2169 35.9943 25.3459 36.1127 25.4454C36.2334 25.5448 36.4323 25.6265 36.7093 25.6904L37.6396 25.8893C38.1557 26.0005 38.5393 26.1769 38.7902 26.4184C39.0435 26.6599 39.1714 26.9759 39.1737 27.3665C39.1714 27.7098 39.0708 28.0128 38.8719 28.2756C38.6754 28.536 38.402 28.7396 38.0516 28.8864C37.7012 29.0332 37.2987 29.1066 36.8442 29.1066C36.1766 29.1066 35.6392 28.9669 35.232 28.6876C34.8248 28.4058 34.5821 28.014 34.504 27.5121L35.7575 27.3914C35.8144 27.6376 35.9351 27.8235 36.1198 27.9489C36.3044 28.0744 36.5447 28.1371 36.8406 28.1371C37.146 28.1371 37.3911 28.0744 37.5757 27.9489C37.7628 27.8235 37.8563 27.6684 37.8563 27.4837C37.8563 27.3275 37.7959 27.1985 37.6752 27.0967C37.5568 26.9949 37.3721 26.9167 37.1212 26.8623L36.1908 26.667C35.6676 26.5581 35.2805 26.3746 35.0296 26.1165C34.7786 25.8561 34.6543 25.527 34.6567 25.1293C34.6543 24.7931 34.7455 24.502 34.9301 24.2557C35.1172 24.0072 35.3764 23.8154 35.7078 23.6805C36.0416 23.5431 36.4263 23.4745 36.8619 23.4745C37.5012 23.4745 38.0042 23.6106 38.3712 23.8829C38.7405 24.1551 38.969 24.5233 39.0566 24.9873ZM44.5448 24.9873L43.373 25.1151C43.3398 24.9967 43.2818 24.8855 43.199 24.7813C43.1185 24.6771 43.0096 24.5931 42.8722 24.5292C42.7349 24.4653 42.5669 24.4333 42.368 24.4333C42.1005 24.4333 41.8756 24.4913 41.6933 24.6073C41.5133 24.7233 41.4246 24.8736 41.4269 25.0583C41.4246 25.2169 41.4826 25.3459 41.6009 25.4454C41.7217 25.5448 41.9205 25.6265 42.1975 25.6904L43.1279 25.8893C43.644 26.0005 44.0276 26.1769 44.2785 26.4184C44.5318 26.6599 44.6597 26.9759 44.662 27.3665C44.6597 27.7098 44.559 28.0128 44.3602 28.2756C44.1637 28.536 43.8902 28.7396 43.5399 28.8864C43.1895 29.0332 42.787 29.1066 42.3325 29.1066C41.6649 29.1066 41.1275 28.9669 40.7203 28.6876C40.3131 28.4058 40.0704 28.014 39.9923 27.5121L41.2458 27.3914C41.3026 27.6376 41.4234 27.8235 41.608 27.9489C41.7927 28.0744 42.033 28.1371 42.3289 28.1371C42.6343 28.1371 42.8794 28.0744 43.064 27.9489C43.251 27.8235 43.3445 27.6684 43.3445 27.4837C43.3445 27.3275 43.2842 27.1985 43.1634 27.0967C43.0451 26.9949 42.8604 26.9167 42.6095 26.8623L41.6791 26.667C41.1559 26.5581 40.7688 26.3746 40.5178 26.1165C40.2669 25.8561 40.1426 25.527 40.145 25.1293C40.1426 24.7931 40.2338 24.502 40.4184 24.2557C40.6054 24.0072 40.8647 23.8154 41.1961 23.6805C41.5299 23.5431 41.9146 23.4745 42.3502 23.4745C42.9894 23.4745 43.4925 23.6106 43.8595 23.8829C44.2288 24.1551 44.4572 24.5233 44.5448 24.9873ZM48.1368 29.1066C47.5899 29.1066 47.1176 28.993 46.7199 28.7657C46.3245 28.536 46.0203 28.2117 45.8073 27.7927C45.5942 27.3713 45.4877 26.8753 45.4877 26.3047C45.4877 25.7437 45.5942 25.2512 45.8073 24.8275C46.0227 24.4013 46.3234 24.0699 46.7093 23.8332C47.0951 23.594 47.5485 23.4745 48.0693 23.4745C48.4055 23.4745 48.7227 23.5289 49.021 23.6378C49.3217 23.7444 49.5869 23.9101 49.8165 24.135C50.0485 24.3599 50.2308 24.6464 50.3634 24.9944C50.4959 25.34 50.5622 25.752 50.5622 26.2302V26.6244H46.0914V25.7579H49.33C49.3276 25.5117 49.2744 25.2927 49.1702 25.1009C49.066 24.9068 48.9204 24.7541 48.7334 24.6428C48.5487 24.5315 48.3333 24.4759 48.0871 24.4759C47.8243 24.4759 47.5935 24.5398 47.3946 24.6677C47.1958 24.7931 47.0407 24.9589 46.9294 25.1648C46.8205 25.3684 46.7649 25.5922 46.7625 25.836V26.5924C46.7625 26.9096 46.8205 27.1819 46.9365 27.4092C47.0525 27.6341 47.2147 27.8069 47.423 27.9276C47.6314 28.046 47.8752 28.1052 48.1546 28.1052C48.3416 28.1052 48.5109 28.0791 48.6624 28.027C48.8139 27.9726 48.9453 27.8933 49.0566 27.7891C49.1678 27.685 49.2519 27.5559 49.3087 27.402L50.509 27.537C50.4332 27.8542 50.2888 28.1312 50.0757 28.368C49.865 28.6023 49.5951 28.7846 49.2661 28.9148C48.937 29.0427 48.5606 29.1066 48.1368 29.1066ZM56.1544 29.0959C55.7259 29.0959 55.3424 28.9859 55.0038 28.7657C54.6653 28.5455 54.3978 28.2259 54.2013 27.8069C54.0048 27.3878 53.9065 26.8788 53.9065 26.2799C53.9065 25.6738 54.0059 25.1625 54.2048 24.7458C54.406 24.3268 54.6771 24.0107 55.018 23.7976C55.3589 23.5822 55.7389 23.4745 56.1579 23.4745C56.4775 23.4745 56.7403 23.5289 56.9463 23.6378C57.1523 23.7444 57.3156 23.8734 57.4363 24.0249C57.5571 24.1741 57.6506 24.3149 57.7169 24.4475H57.7702V21.7273H59.0592V29.0001H57.795V28.1407H57.7169C57.6506 28.2733 57.5547 28.4141 57.4292 28.5633C57.3038 28.7101 57.1381 28.8355 56.9321 28.9397C56.7261 29.0439 56.4669 29.0959 56.1544 29.0959ZM56.5131 28.0413C56.7853 28.0413 57.0173 27.9679 57.2091 27.8211C57.4008 27.6719 57.5464 27.4648 57.6459 27.1996C57.7453 26.9345 57.795 26.6255 57.795 26.2728C57.795 25.92 57.7453 25.6135 57.6459 25.353C57.5488 25.0926 57.4044 24.8902 57.2126 24.7458C57.0232 24.6014 56.79 24.5292 56.5131 24.5292C56.2266 24.5292 55.9875 24.6038 55.7957 24.7529C55.604 24.902 55.4595 25.108 55.3625 25.3708C55.2654 25.6336 55.2169 25.9342 55.2169 26.2728C55.2169 26.6137 55.2654 26.9179 55.3625 27.1854C55.4619 27.4506 55.6075 27.6601 55.7993 27.814C55.9934 27.9655 56.2313 28.0413 56.5131 28.0413ZM62.8438 29.1066C62.297 29.1066 61.8247 28.993 61.4269 28.7657C61.0316 28.536 60.7274 28.2117 60.5143 27.7927C60.3012 27.3713 60.1947 26.8753 60.1947 26.3047C60.1947 25.7437 60.3012 25.2512 60.5143 24.8275C60.7297 24.4013 61.0304 24.0699 61.4163 23.8332C61.8022 23.594 62.2555 23.4745 62.7764 23.4745C63.1125 23.4745 63.4298 23.5289 63.7281 23.6378C64.0287 23.7444 64.2939 23.9101 64.5235 24.135C64.7555 24.3599 64.9378 24.6464 65.0704 24.9944C65.203 25.34 65.2693 25.752 65.2693 26.2302V26.6244H60.7984V25.7579H64.037C64.0347 25.5117 63.9814 25.2927 63.8772 25.1009C63.7731 24.9068 63.6275 24.7541 63.4404 24.6428C63.2558 24.5315 63.0403 24.4759 62.7941 24.4759C62.5313 24.4759 62.3005 24.5398 62.1017 24.6677C61.9028 24.7931 61.7477 24.9589 61.6365 25.1648C61.5276 25.3684 61.4719 25.5922 61.4695 25.836V26.5924C61.4695 26.9096 61.5276 27.1819 61.6436 27.4092C61.7596 27.6341 61.9217 27.8069 62.1301 27.9276C62.3384 28.046 62.5822 28.1052 62.8616 28.1052C63.0486 28.1052 63.2179 28.0791 63.3694 28.027C63.5209 27.9726 63.6523 27.8933 63.7636 27.7891C63.8749 27.685 63.9589 27.5559 64.0157 27.402L65.216 27.537C65.1402 27.8542 64.9958 28.1312 64.7828 28.368C64.5721 28.6023 64.3022 28.7846 63.9731 28.9148C63.644 29.0427 63.2676 29.1066 62.8438 29.1066ZM19.6962 41.0001H18.29L20.8503 33.7273H22.4767L25.0407 41.0001H23.6344L21.6919 35.2188H21.6351L19.6962 41.0001ZM19.7424 38.1485H23.5776V39.2067H19.7424V38.1485ZM25.9418 41.0001V35.5455H27.1882V36.4546H27.245C27.3445 36.1397 27.5149 35.8971 27.7564 35.7266C28.0002 35.5538 28.2784 35.4674 28.5909 35.4674C28.6619 35.4674 28.7412 35.4709 28.8288 35.478C28.9188 35.4828 28.9934 35.4911 29.0526 35.5029V36.6854C28.9981 36.6665 28.9117 36.6499 28.7933 36.6357C28.6773 36.6191 28.5649 36.6109 28.456 36.6109C28.2216 36.6109 28.0109 36.6618 27.8239 36.7636C27.6392 36.863 27.4936 37.0015 27.3871 37.179C27.2805 37.3566 27.2273 37.5614 27.2273 37.7934V41.0001H25.9418ZM29.9066 41.0001V35.5455H31.1353V36.4724H31.1992C31.3129 36.1599 31.5011 35.916 31.7638 35.7408C32.0266 35.5633 32.3403 35.4745 32.7049 35.4745C33.0742 35.4745 33.3855 35.5645 33.6388 35.7444C33.8945 35.9219 34.0745 36.1646 34.1786 36.4724H34.2354C34.3562 36.1693 34.5598 35.9279 34.8462 35.7479C35.1351 35.5656 35.4772 35.4745 35.8725 35.4745C36.3744 35.4745 36.784 35.6331 37.1012 35.9503C37.4184 36.2676 37.5771 36.7304 37.5771 37.3388V41.0001H36.288V37.5377C36.288 37.1992 36.198 36.9518 36.0181 36.7955C35.8382 36.6369 35.618 36.5576 35.3576 36.5576C35.0475 36.5576 34.8048 36.6547 34.6296 36.8488C34.4568 37.0405 34.3704 37.2903 34.3704 37.5981V41.0001H33.1097V37.4844C33.1097 37.2027 33.0245 36.9778 32.854 36.8097C32.686 36.6416 32.4658 36.5576 32.1935 36.5576C32.0089 36.5576 31.8408 36.6049 31.6893 36.6996C31.5378 36.792 31.417 36.9234 31.3271 37.0938C31.2371 37.2619 31.1921 37.4584 31.1921 37.6833V41.0001H29.9066ZM40.4508 41.1101C40.1052 41.1101 39.7939 41.0486 39.5169 40.9255C39.2422 40.8 39.0244 40.6154 38.8635 40.3715C38.7048 40.1277 38.6255 39.827 38.6255 39.4695C38.6255 39.1618 38.6824 38.9073 38.796 38.706C38.9096 38.5048 39.0647 38.3438 39.2612 38.2231C39.4577 38.1023 39.679 38.0112 39.9252 37.9496C40.1738 37.8857 40.4307 37.8395 40.6958 37.8111C41.0154 37.778 41.2747 37.7484 41.4735 37.7224C41.6724 37.694 41.8168 37.6513 41.9068 37.5945C41.9991 37.5353 42.0453 37.4442 42.0453 37.3211V37.2998C42.0453 37.0323 41.966 36.8251 41.8074 36.6783C41.6487 36.5315 41.4203 36.4582 41.122 36.4582C40.8071 36.4582 40.5574 36.5268 40.3727 36.6641C40.1904 36.8014 40.0673 36.9636 40.0034 37.1506L38.8031 36.9802C38.8978 36.6487 39.054 36.3717 39.2718 36.1492C39.4896 35.9243 39.756 35.7562 40.0708 35.6449C40.3857 35.5313 40.7337 35.4745 41.1149 35.4745C41.3777 35.4745 41.6393 35.5053 41.8997 35.5668C42.1601 35.6284 42.398 35.7302 42.6135 35.8722C42.8289 36.0119 43.0017 36.2025 43.1319 36.444C43.2645 36.6854 43.3308 36.9873 43.3308 37.3495V41.0001H42.095V40.2508H42.0524C41.9743 40.4023 41.8642 40.5443 41.7221 40.6769C41.5824 40.8071 41.4061 40.9125 41.193 40.993C40.9823 41.0711 40.7349 41.1101 40.4508 41.1101ZM40.7846 40.1655C41.0427 40.1655 41.2664 40.1146 41.4558 40.0128C41.6452 39.9087 41.7908 39.7714 41.8926 39.6009C41.9967 39.4305 42.0488 39.2446 42.0488 39.0434V38.4006C42.0086 38.4338 41.9399 38.4645 41.8429 38.493C41.7482 38.5214 41.6416 38.5462 41.5233 38.5675C41.4049 38.5888 41.2877 38.6078 41.1717 38.6244C41.0557 38.6409 40.9551 38.6551 40.8699 38.667C40.6781 38.693 40.5065 38.7356 40.3549 38.7948C40.2034 38.854 40.0839 38.9369 39.9963 39.0434C39.9087 39.1476 39.8649 39.2825 39.8649 39.4482C39.8649 39.685 39.9513 39.8637 40.1241 39.9844C40.2969 40.1052 40.5171 40.1655 40.7846 40.1655ZM46.6475 41.0959C46.219 41.0959 45.8355 40.9859 45.497 40.7657C45.1584 40.5455 44.8909 40.2259 44.6944 39.8069C44.4979 39.3878 44.3997 38.8788 44.3997 38.2799C44.3997 37.6738 44.4991 37.1625 44.698 36.7458C44.8992 36.3268 45.1703 36.0107 45.5112 35.7976C45.8521 35.5822 46.2321 35.4745 46.6511 35.4745C46.9707 35.4745 47.2335 35.5289 47.4395 35.6378C47.6454 35.7444 47.8088 35.8734 47.9295 36.0249C48.0502 36.1741 48.1438 36.3149 48.21 36.4475H48.2633V33.7273H49.5524V41.0001H48.2882V40.1407H48.21C48.1438 40.2733 48.0479 40.4141 47.9224 40.5633C47.7969 40.7101 47.6312 40.8355 47.4252 40.9397C47.2193 41.0439 46.96 41.0959 46.6475 41.0959ZM47.0062 40.0413C47.2785 40.0413 47.5105 39.9679 47.7022 39.8211C47.894 39.6719 48.0396 39.4648 48.139 39.1996C48.2385 38.9345 48.2882 38.6255 48.2882 38.2728C48.2882 37.92 48.2385 37.6135 48.139 37.353C48.042 37.0926 47.8975 36.8902 47.7058 36.7458C47.5164 36.6014 47.2832 36.5292 47.0062 36.5292C46.7198 36.5292 46.4806 36.6038 46.2889 36.7529C46.0971 36.902 45.9527 37.108 45.8556 37.3708C45.7586 37.6336 45.71 37.9342 45.71 38.2728C45.71 38.6137 45.7586 38.9179 45.8556 39.1854C45.9551 39.4506 46.1007 39.6601 46.2924 39.814C46.4866 39.9655 46.7245 40.0413 47.0062 40.0413ZM54.3988 38.706V35.5455H55.6843V41.0001H54.4379V40.0306H54.381C54.2579 40.336 54.0555 40.5858 53.7738 40.7799C53.4944 40.974 53.15 41.0711 52.7404 41.0711C52.3829 41.0711 52.0669 40.9918 51.7923 40.8332C51.52 40.6722 51.3069 40.439 51.1531 40.1336C50.9992 39.8258 50.9222 39.4541 50.9222 39.0185V35.5455H52.2077V38.8197C52.2077 39.1653 52.3024 39.4399 52.4918 39.6435C52.6812 39.8471 52.9298 39.9489 53.2376 39.9489C53.427 39.9489 53.6104 39.9028 53.788 39.8104C53.9656 39.7181 54.1112 39.5808 54.2248 39.3985C54.3408 39.2138 54.3988 38.983 54.3988 38.706ZM57.0062 41.0001V35.5455H58.2527V36.4546H58.3095C58.4089 36.1397 58.5794 35.8971 58.8208 35.7266C59.0647 35.5538 59.3429 35.4674 59.6554 35.4674C59.7264 35.4674 59.8057 35.4709 59.8933 35.478C59.9833 35.4828 60.0578 35.4911 60.117 35.5029V36.6854C60.0626 36.6665 59.9761 36.6499 59.8578 36.6357C59.7418 36.6191 59.6293 36.6109 59.5204 36.6109C59.286 36.6109 59.0753 36.6618 58.8883 36.7636C58.7037 36.863 58.5581 37.0015 58.4515 37.179C58.345 37.3566 58.2917 37.5614 58.2917 37.7934V41.0001H57.0062ZM62.443 41.1101C62.0974 41.1101 61.786 41.0486 61.5091 40.9255C61.2344 40.8 61.0166 40.6154 60.8556 40.3715C60.697 40.1277 60.6177 39.827 60.6177 39.4695C60.6177 39.1618 60.6745 38.9073 60.7882 38.706C60.9018 38.5048 61.0569 38.3438 61.2534 38.2231C61.4499 38.1023 61.6712 38.0112 61.9174 37.9496C62.166 37.8857 62.4229 37.8395 62.688 37.8111C63.0076 37.778 63.2669 37.7484 63.4657 37.7224C63.6646 37.694 63.809 37.6513 63.899 37.5945C63.9913 37.5353 64.0375 37.4442 64.0375 37.3211V37.2998C64.0375 37.0323 63.9582 36.8251 63.7995 36.6783C63.6409 36.5315 63.4125 36.4582 63.1142 36.4582C62.7993 36.4582 62.5495 36.5268 62.3649 36.6641C62.1826 36.8014 62.0595 36.9636 61.9956 37.1506L60.7953 36.9802C60.89 36.6487 61.0462 36.3717 61.264 36.1492C61.4818 35.9243 61.7482 35.7562 62.063 35.6449C62.3779 35.5313 62.7259 35.4745 63.1071 35.4745C63.3699 35.4745 63.6315 35.5053 63.8919 35.5668C64.1523 35.6284 64.3902 35.7302 64.6056 35.8722C64.8211 36.0119 64.9939 36.2025 65.1241 36.444C65.2567 36.6854 65.323 36.9873 65.323 37.3495V41.0001H64.0872V40.2508H64.0446C63.9664 40.4023 63.8564 40.5443 63.7143 40.6769C63.5746 40.8071 63.3983 40.9125 63.1852 40.993C62.9745 41.0711 62.7271 41.1101 62.443 41.1101ZM62.7768 40.1655C63.0349 40.1655 63.2586 40.1146 63.448 40.0128C63.6374 39.9087 63.783 39.7714 63.8848 39.6009C63.9889 39.4305 64.041 39.2446 64.041 39.0434V38.4006C64.0008 38.4338 63.9321 38.4645 63.835 38.493C63.7404 38.5214 63.6338 38.5462 63.5154 38.5675C63.3971 38.5888 63.2799 38.6078 63.1639 38.6244C63.0479 38.6409 62.9473 38.6551 62.862 38.667C62.6703 38.693 62.4986 38.7356 62.3471 38.7948C62.1956 38.854 62.0761 38.9369 61.9885 39.0434C61.9009 39.1476 61.8571 39.2825 61.8571 39.4482C61.8571 39.685 61.9435 39.8637 62.1163 39.9844C62.2891 40.1052 62.5093 40.1655 62.7768 40.1655Z" fill="black"/>
</svg>
