<svg width="89" height="90" viewBox="0 0 89 90" fill="none" xmlns="http://www.w3.org/2000/svg">
<path d="M7.41996 42.9092C4.87786 40.1222 2.99496 36.6827 1.94617 32.8921C0.897355 29.1015 0.7171 25.0836 1.42232 21.1966C2.12752 17.3096 3.69499 13.6809 5.97859 10.6302C8.26189 7.57985 11.1883 5.20425 14.4921 3.7039C17.795 2.20394 21.3788 1.62225 24.9284 2.00554C28.4783 2.38888 31.8952 3.72677 34.8755 5.91007C37.8566 8.0939 40.3102 11.0575 42.0107 14.5454C43.4342 17.4652 43.5 17.2673 44 21.2354" stroke="black" stroke-width="2"/>
<path d="M44.5 21.2354C45.0438 17.4812 47.2844 14.7507 49.2891 11.6927C51.2936 8.63488 53.911 6.16006 56.9202 4.46081C59.9285 2.76206 63.2467 1.88414 66.6053 1.89103C69.9639 1.89792 73.2794 2.78945 76.2822 4.50063C79.2859 6.2123 81.8953 8.69799 83.8898 11.7641C85.8845 14.8306 87.2047 18.3868 87.7361 22.1432C88.2675 25.8997 87.9938 29.7425 86.9389 33.3558C85.8841 36.969 84.0801 40.2434 81.6824 42.9152" stroke="black" stroke-width="2"/>
<path d="M5.14868 40.5798L44.8677 88.1969L83.8512 40.5798" stroke="black" stroke-width="2"/>
<path d="M24.1197 32.7234V25.4507H26.8469C27.4057 25.4507 27.8744 25.5548 28.2532 25.7632C28.6344 25.9715 28.922 26.258 29.1161 26.6225C29.3126 26.9848 29.4109 27.3967 29.4109 27.8583C29.4109 28.3247 29.3126 28.739 29.1161 29.1012C28.9196 29.4634 28.6296 29.7487 28.2461 29.9571C27.8626 30.163 27.3903 30.266 26.8292 30.266H25.0217V29.1829H26.6516C26.9783 29.1829 27.2459 29.1261 27.4542 29.0125C27.6625 28.8988 27.8164 28.7426 27.9158 28.5437C28.0176 28.3448 28.0685 28.1164 28.0685 27.8583C28.0685 27.6003 28.0176 27.373 27.9158 27.1765C27.8164 26.98 27.6613 26.8273 27.4506 26.7184C27.2423 26.6071 26.9736 26.5515 26.6445 26.5515H25.4371V32.7234H24.1197ZM31.5282 25.4507L33.421 31.1751H33.4956L35.3848 25.4507H36.8336L34.2697 32.7234H32.6433L30.0829 25.4507H31.5282ZM39.9524 26.5551V25.4507H45.755V26.5551H43.5071V32.7234H42.2003V26.5551H39.9524ZM48.405 32.8299C47.8723 32.8299 47.4107 32.7127 47.0201 32.4784C46.6294 32.244 46.3264 31.9161 46.111 31.4947C45.8979 31.0733 45.7914 30.5809 45.7914 30.0174C45.7914 29.454 45.8979 28.9604 46.111 28.5366C46.3264 28.1128 46.6294 27.7838 47.0201 27.5494C47.4107 27.315 47.8723 27.1978 48.405 27.1978C48.9377 27.1978 49.3993 27.315 49.79 27.5494C50.1806 27.7838 50.4824 28.1128 50.6955 28.5366C50.9109 28.9604 51.0186 29.454 51.0186 30.0174C51.0186 30.5809 50.9109 31.0733 50.6955 31.4947C50.4824 31.9161 50.1806 32.244 49.79 32.4784C49.3993 32.7127 48.9377 32.8299 48.405 32.8299ZM48.4121 31.8001C48.7009 31.8001 48.9424 31.7208 49.1365 31.5622C49.3307 31.4012 49.4751 31.1857 49.5698 30.9159C49.6668 30.646 49.7154 30.3453 49.7154 30.0139C49.7154 29.6801 49.6668 29.3782 49.5698 29.1083C49.4751 28.8361 49.3307 28.6195 49.1365 28.4585C48.9424 28.2975 48.7009 28.217 48.4121 28.217C48.1162 28.217 47.87 28.2975 47.6735 28.4585C47.4793 28.6195 47.3337 28.8361 47.2367 29.1083C47.142 29.3782 47.0946 29.6801 47.0946 30.0139C47.0946 30.3453 47.142 30.646 47.2367 30.9159C47.3337 31.1857 47.4793 31.4012 47.6735 31.5622C47.87 31.7208 48.1162 31.8001 48.4121 31.8001ZM54.8335 27.2688V28.2632H51.6978V27.2688H54.8335ZM52.4719 25.962H53.7575V31.0828C53.7575 31.2556 53.7835 31.3882 53.8356 31.4805C53.89 31.5705 53.9611 31.632 54.0487 31.6652C54.1362 31.6983 54.2333 31.7149 54.3398 31.7149C54.4203 31.7149 54.4937 31.7089 54.56 31.6971C54.6287 31.6853 54.6808 31.6746 54.7163 31.6652L54.9329 32.6701C54.8642 32.6938 54.766 32.7198 54.6381 32.7482C54.5127 32.7767 54.3588 32.7932 54.1765 32.798C53.8545 32.8074 53.5645 32.7589 53.3065 32.6524C53.0484 32.5435 52.8436 32.3754 52.6921 32.1481C52.543 31.9208 52.4696 31.6367 52.4719 31.2958V25.962ZM57.4782 32.8335C57.1325 32.8335 56.8212 32.7719 56.5442 32.6488C56.2696 32.5233 56.0518 32.3387 55.8908 32.0948C55.7322 31.851 55.6529 31.5503 55.6529 31.1928C55.6529 30.8851 55.7097 30.6306 55.8233 30.4294C55.937 30.2281 56.092 30.0671 56.2885 29.9464C56.485 29.8257 56.7064 29.7345 56.9526 29.673C57.2012 29.609 57.458 29.5629 57.7232 29.5345C58.0428 29.5013 58.302 29.4717 58.5009 29.4457C58.6998 29.4173 58.8442 29.3747 58.9341 29.3178C59.0265 29.2587 59.0726 29.1675 59.0726 29.0444V29.0231C59.0726 28.7556 58.9933 28.5484 58.8347 28.4017C58.6761 28.2549 58.4476 28.1815 58.1493 28.1815C57.8345 28.1815 57.5847 28.2501 57.4 28.3875C57.2177 28.5248 57.0946 28.6869 57.0307 28.874L55.8304 28.7035C55.9251 28.3721 56.0814 28.0951 56.2992 27.8725C56.517 27.6476 56.7833 27.4795 57.0982 27.3683C57.4131 27.2546 57.7611 27.1978 58.1422 27.1978C58.405 27.1978 58.6666 27.2286 58.927 27.2901C59.1874 27.3517 59.4254 27.4535 59.6408 27.5955C59.8562 27.7352 60.0291 27.9258 60.1593 28.1673C60.2918 28.4088 60.3581 28.7106 60.3581 29.0728V32.7234H59.1223V31.9741H59.0797C59.0016 32.1256 58.8915 32.2677 58.7495 32.4002C58.6098 32.5304 58.4334 32.6358 58.2203 32.7163C58.0096 32.7944 57.7623 32.8335 57.4782 32.8335ZM57.812 31.8889C58.07 31.8889 58.2937 31.838 58.4831 31.7362C58.6725 31.632 58.8181 31.4947 58.9199 31.3242C59.0241 31.1538 59.0762 30.9679 59.0762 30.7667V30.124C59.0359 30.1571 58.9673 30.1879 58.8702 30.2163C58.7755 30.2447 58.669 30.2696 58.5506 30.2909C58.4322 30.3122 58.315 30.3311 58.199 30.3477C58.083 30.3643 57.9824 30.3785 57.8972 30.3903C57.7054 30.4163 57.5338 30.4589 57.3823 30.5181C57.2308 30.5773 57.1112 30.6602 57.0236 30.7667C56.936 30.8709 56.8922 31.0058 56.8922 31.1715C56.8922 31.4083 56.9786 31.587 57.1515 31.7078C57.3243 31.8285 57.5444 31.8889 57.812 31.8889ZM62.9363 25.4507V32.7234H61.6507V25.4507H62.9363Z" fill="black"/>
</svg>
