<svg width="89" height="103" viewBox="0 0 89 103" fill="none" xmlns="http://www.w3.org/2000/svg">
<path d="M8.90084 0.283569C7.00227 0.283569 5.50352 1.78275 5.50352 3.68068C5.50352 5.2615 6.54336 6.56539 7.98775 6.95705L12.9579 18.8594C10.2471 20.4415 8.00258 23.124 6.47611 26.922L0.797363 31.1807L3.20748 34.39L4.96426 33.0719C11.7795 28.5362 20.5189 24.481 28.6229 22.3351L34.4939 21.459L33.8966 17.4844L26.7436 18.5547C23.9485 17.4898 21.3399 17.0302 18.985 17.1353C18.1965 17.1705 17.4377 17.2685 16.7076 17.4219L11.7473 5.54015C12.1047 4.9859 12.2936 4.33992 12.2913 3.68046C12.2913 1.78189 10.7994 0.283569 8.90084 0.283569ZM25.4163 27.582C21.6106 28.8947 17.7017 30.5733 14.0564 32.4495L28.7533 67.9052L31.8953 66.2204L37.9711 57.8952L25.4163 27.582ZM61.7451 51.5436L47.1089 52.1952L34.8699 68.953L34.6013 69.3221L34.1985 69.544L20.1664 77.07L14.0498 102.247H88.2246L85.0019 88.5646L49.4324 76.8152L50.6944 73.0017L70.0099 79.38L61.7451 51.5436Z" fill="black"/>
</svg>
