<svg width="141" height="141" viewBox="0 0 141 141" fill="none" xmlns="http://www.w3.org/2000/svg">
<path d="M31.1354 58.8055L0.35 101.432C-0.548333 102.799 0.379167 104.576 2.07958 104.751L62.8221 110.786L31.1354 58.8055ZM2.16125 86.2504L24.1208 52.7953L1.7675 40.2227C0.98875 39.7852 0 40.3102 0 41.1605V85.6789C0 86.7809 1.54292 87.191 2.16125 86.2504ZM5.32292 115.828L62.0229 139.798C63.5688 140.468 65.3333 139.407 65.3333 137.812V119.856L5.96458 113.758C4.66667 113.621 4.1475 115.287 5.32292 115.828ZM29.0121 45.3414L52.325 6.25625C53.5908 4.32578 51.2779 2.08633 49.1808 3.21016L5.19458 30.1738C4.47417 30.6168 4.4975 31.6121 5.2325 32.0277L29.0121 45.3414ZM70 48.125H101.853L73.9754 2.08359C73.0625 0.694531 71.5313 0 70 0C68.4688 0 66.9375 0.694531 66.0246 2.08359L38.1471 48.125H70ZM138.233 40.2227L115.879 52.798L137.839 86.2531C138.454 87.1937 140 86.7836 140 85.6789V41.1605C140 40.3102 139.011 39.7852 138.233 40.2227ZM110.988 45.3414L134.768 32.025C135.505 31.6094 135.526 30.6141 134.805 30.1711L90.8192 3.21016C88.7221 2.08633 86.4092 4.32578 87.675 6.25625L110.988 45.3414ZM134.035 113.758L74.6667 119.853V137.81C74.6667 139.407 76.4313 140.465 77.9771 139.795L134.677 115.825C135.853 115.287 135.333 113.621 134.035 113.758ZM108.865 58.8055L77.1808 110.786L137.923 104.751C139.624 104.573 140.551 102.799 139.653 101.432L108.865 58.8055ZM70 56.875H40.7079L70 104.932L99.2921 56.875H70Z" fill="white"/>
</svg>
