<svg width="58" height="58" viewBox="0 0 58 58" fill="none" xmlns="http://www.w3.org/2000/svg">
<g filter="url(#filter0_d_200_779)">
<path d="M29 0C24.2544 0 19.4604 1.44752 10.7747 4.31034H47.2253C38.5395 1.44752 33.7454 0 29 0ZM8.08125 6.03447L4 46.5516C11.2917 49.5689 18.5833 49.946 25.875 49.9932V24.1379H10.25V18.9655H47.75V24.1379H32.125V49.9932C39.4167 49.946 46.7083 49.5689 54 46.5516L49.9188 6.03447H8.08125ZM16.5285 15.5172C16.7998 15.5234 17.0574 15.6169 17.2466 15.7779C17.4358 15.9389 17.5416 16.1547 17.5415 16.3793C17.5415 16.6079 17.4318 16.8272 17.2364 16.9889C17.0411 17.1505 16.7761 17.2413 16.4999 17.2413C16.2236 17.2413 15.9587 17.1505 15.7633 16.9889C15.5679 16.8272 15.4582 16.6079 15.4582 16.3793C15.4581 16.264 15.486 16.15 15.5401 16.0438C15.5943 15.9376 15.6736 15.8415 15.7734 15.7612C15.8731 15.6808 15.9914 15.6178 16.1211 15.5759C16.2508 15.534 16.3893 15.514 16.5285 15.5172ZM22.7785 15.5172C23.0498 15.5234 23.3074 15.6169 23.4966 15.7779C23.6858 15.9389 23.7916 16.1547 23.7915 16.3793C23.7915 16.6079 23.6818 16.8272 23.4864 16.9889C23.2911 17.1505 23.0261 17.2413 22.7499 17.2413C22.4736 17.2413 22.2087 17.1505 22.0133 16.9889C21.8179 16.8272 21.7082 16.6079 21.7082 16.3793C21.7081 16.264 21.736 16.15 21.7901 16.0438C21.8443 15.9376 21.9236 15.8415 22.0234 15.7612C22.1231 15.6808 22.2414 15.6178 22.3711 15.5759C22.5008 15.534 22.6393 15.514 22.7785 15.5172ZM29.0285 15.5172C29.2998 15.5234 29.5574 15.6169 29.7466 15.7779C29.9358 15.9389 30.0416 16.1547 30.0415 16.3793C30.0415 16.6079 29.9318 16.8272 29.7364 16.9889C29.5411 17.1505 29.2761 17.2413 28.9999 17.2413C28.7236 17.2413 28.4587 17.1505 28.2633 16.9889C28.0679 16.8272 27.9582 16.6079 27.9582 16.3793C27.9581 16.264 27.986 16.15 28.0401 16.0438C28.0943 15.9376 28.1736 15.8415 28.2734 15.7612C28.3731 15.6808 28.4914 15.6178 28.6211 15.5759C28.7508 15.534 28.8893 15.514 29.0285 15.5172ZM35.2785 15.5172C35.5498 15.5234 35.8074 15.6169 35.9966 15.7779C36.1858 15.9389 36.2916 16.1547 36.2915 16.3793C36.2915 16.6079 36.1818 16.8272 35.9864 16.9889C35.7911 17.1505 35.5261 17.2413 35.2499 17.2413C34.9736 17.2413 34.7086 17.1505 34.5133 16.9889C34.3179 16.8272 34.2082 16.6079 34.2082 16.3793C34.2081 16.264 34.236 16.15 34.2901 16.0438C34.3443 15.9376 34.4236 15.8415 34.5234 15.7612C34.6231 15.6808 34.7414 15.6178 34.8711 15.5759C35.0008 15.534 35.1393 15.514 35.2785 15.5172ZM41.5285 15.5172C41.7998 15.5234 42.0574 15.6169 42.2466 15.7779C42.4358 15.9389 42.5416 16.1547 42.5415 16.3793C42.5415 16.6079 42.4318 16.8272 42.2364 16.9889C42.0411 17.1505 41.7761 17.2413 41.4999 17.2413C41.2236 17.2413 40.9586 17.1505 40.7633 16.9889C40.5679 16.8272 40.4582 16.6079 40.4582 16.3793C40.4581 16.264 40.486 16.15 40.5401 16.0438C40.5943 15.9376 40.6736 15.8415 40.7734 15.7612C40.8731 15.6808 40.9914 15.6178 41.1211 15.5759C41.2508 15.534 41.3893 15.514 41.5285 15.5172ZM27.9583 24.1379V49.9999C28.3056 50.0001 28.6527 49.9999 29 49.9999C29.3473 49.9999 29.6944 50.0001 30.0417 49.9999V24.1379H27.9583ZM12.3333 29.3103H14.4167V31.0344H12.3333V29.3103ZM16.5 29.3103H18.5833V31.0344H16.5V29.3103ZM20.6667 29.3103H22.75V31.0344H20.6667V29.3103ZM35.25 29.3103H37.3333V31.0344H35.25V29.3103ZM39.4167 29.3103H41.5V31.0344H39.4167V29.3103ZM43.5833 29.3103H45.6667V31.0344H43.5833V29.3103ZM12.3333 32.7586H14.4167V34.4827H12.3333V32.7586ZM16.5 32.7586H18.5833V34.4827H16.5V32.7586ZM20.6667 32.7586H22.75V34.4827H20.6667V32.7586ZM35.25 32.7586H37.3333V34.4827H35.25V32.7586ZM39.4167 32.7586H41.5V34.4827H39.4167V32.7586ZM43.5833 32.7586H45.6667V34.4827H43.5833V32.7586ZM12.3333 36.2068H14.4167V37.931H12.3333V36.2068ZM16.5 36.2068H18.5833V37.931H16.5V36.2068ZM20.6667 36.2068H22.75V37.931H20.6667V36.2068ZM35.25 36.2068H37.3333V37.931H35.25V36.2068ZM39.4167 36.2068H41.5V37.931H39.4167V36.2068ZM43.5833 36.2068H45.6667V37.931H43.5833V36.2068Z" fill="black"/>
</g>
<defs>
<filter id="filter0_d_200_779" x="0" y="0" width="58" height="58" filterUnits="userSpaceOnUse" color-interpolation-filters="sRGB">
<feFlood flood-opacity="0" result="BackgroundImageFix"/>
<feColorMatrix in="SourceAlpha" type="matrix" values="0 0 0 0 0 0 0 0 0 0 0 0 0 0 0 0 0 0 127 0" result="hardAlpha"/>
<feOffset dy="4"/>
<feGaussianBlur stdDeviation="2"/>
<feComposite in2="hardAlpha" operator="out"/>
<feColorMatrix type="matrix" values="0 0 0 0 0 0 0 0 0 0 0 0 0 0 0 0 0 0 0.25 0"/>
<feBlend mode="normal" in2="BackgroundImageFix" result="effect1_dropShadow_200_779"/>
<feBlend mode="normal" in="SourceGraphic" in2="effect1_dropShadow_200_779" result="shape"/>
</filter>
</defs>
</svg>
