<svg width="65" height="60" viewBox="0 0 65 60" fill="none" xmlns="http://www.w3.org/2000/svg">
<path d="M46.9444 45V36H21.6667V24H46.9444V15L65 30L46.9444 45ZM39.7222 0C41.6377 0 43.4747 0.632141 44.8291 1.75736C46.1835 2.88258 46.9444 4.4087 46.9444 6V12H39.7222V6H7.22222V54H39.7222V48H46.9444V54C46.9444 55.5913 46.1835 57.1174 44.8291 58.2426C43.4747 59.3679 41.6377 60 39.7222 60H7.22222C5.30677 60 3.46977 59.3679 2.11534 58.2426C0.76091 57.1174 0 55.5913 0 54V6C0 4.4087 0.76091 2.88258 2.11534 1.75736C3.46977 0.632141 5.30677 0 7.22222 0H39.7222Z" fill="white"/>
</svg>
