<svg width="244" height="136" viewBox="0 0 244 136" fill="none" xmlns="http://www.w3.org/2000/svg">
<path d="M71.0945 30.944C70.1558 23.264 67.5105 17.376 63.1585 13.28C58.8065 9.09866 53.1318 6.96532 46.1345 6.87999C41.6971 6.87999 37.6011 7.86132 33.8465 9.82399C30.0918 11.7867 26.8491 14.56 24.1185 18.144C21.3878 21.6427 19.2545 25.824 17.7185 30.688C16.2678 35.4667 15.5425 40.7147 15.5425 46.432C15.5425 54.1973 16.9078 61.1093 19.6385 67.168C22.3691 73.1413 26.1238 77.792 30.9025 81.12C35.7665 84.448 41.2705 86.112 47.4145 86.112C52.8758 86.112 58.2518 84.832 63.5425 82.272C68.9185 79.6267 73.3558 75.9147 76.8545 71.136L81.0785 74.72C77.2385 80.0107 73.1425 84.064 68.7905 86.88C64.4385 89.696 60.0865 91.5733 55.7345 92.512C51.4678 93.536 47.5851 94.048 44.0865 94.048C37.6865 94.048 31.7985 92.896 26.4225 90.592C21.0465 88.288 16.3958 85.088 12.4705 80.992C8.63048 76.8107 5.64381 71.9893 3.51048 66.528C1.46248 60.9813 0.438477 55.008 0.438477 48.608C0.438477 42.6347 1.37714 36.7893 3.25448 31.072C5.13181 25.3547 7.90514 20.192 11.5745 15.584C15.2438 10.8907 19.8518 7.17866 25.3985 4.44799C31.0305 1.71732 37.5585 0.35199 44.9825 0.35199C49.3345 0.35199 53.5585 0.949323 57.6545 2.14399C61.8358 3.33866 65.8465 5.17332 69.6865 7.64799L69.0465 1.24799H76.9825V30.944H71.0945Z" fill="black"/>
<path d="M141.662 30.048C141.236 25.696 140.126 21.7707 138.334 18.272C136.542 14.7733 134.068 12 130.91 9.95199C127.753 7.81866 123.828 6.79466 119.134 6.87999C114.356 6.87999 110.558 8.20266 107.742 10.848C104.926 13.4933 103.518 16.6933 103.518 20.448C103.518 23.776 104.457 26.592 106.334 28.896C108.212 31.1147 110.729 33.12 113.886 34.912C117.129 36.704 120.756 38.496 124.766 40.288C128.009 41.6533 131.294 43.1893 134.622 44.896C137.95 46.6027 140.98 48.5653 143.71 50.784C146.441 52.9173 148.617 55.52 150.238 58.592C151.86 61.5787 152.67 65.12 152.67 69.216C152.67 73.9947 151.433 78.2613 148.958 82.016C146.484 85.7707 142.942 88.7147 138.334 90.848C133.812 92.9813 128.308 94.048 121.822 94.048C118.153 94.048 114.27 93.4933 110.174 92.384C106.164 91.2747 102.494 89.696 99.1665 87.648L99.8065 93.024H91.9985L91.4865 64.864H97.6305C98.3131 72.288 100.958 77.92 105.566 81.76C110.26 85.5147 115.849 87.392 122.334 87.392C125.577 87.392 128.521 86.7947 131.166 85.6C133.812 84.4053 135.902 82.6987 137.438 80.48C138.974 78.2613 139.742 75.6587 139.742 72.672C139.742 69.1733 138.676 66.2293 136.542 63.84C134.494 61.4507 131.849 59.4027 128.606 57.696C125.449 55.9893 122.121 54.368 118.622 52.832C115.124 51.296 111.71 49.6747 108.382 47.968C105.14 46.2613 102.196 44.2987 99.5505 42.08C96.9051 39.8613 94.8145 37.2587 93.2785 34.272C91.7425 31.2 90.9745 27.616 90.9745 23.52C90.9745 21.1307 91.4011 18.6133 92.2545 15.968C93.1078 13.3227 94.5585 10.8053 96.6065 8.41599C98.6545 6.02665 101.428 4.10665 104.926 2.65599C108.51 1.11999 112.99 0.35199 118.366 0.35199C121.609 0.35199 125.236 0.821322 129.246 1.75999C133.342 2.69866 137.054 4.36266 140.382 6.75199L139.87 1.37599H147.55V30.048H141.662Z" fill="black"/>
<path d="M233.969 30.944C233.031 23.264 230.385 17.376 226.033 13.28C221.681 9.09866 216.007 6.96532 209.009 6.87999C204.572 6.87999 200.476 7.86132 196.721 9.82399C192.967 11.7867 189.724 14.56 186.993 18.144C184.263 21.6427 182.129 25.824 180.593 30.688C179.143 35.4667 178.417 40.7147 178.417 46.432C178.417 54.1973 179.783 61.1093 182.513 67.168C185.244 73.1413 188.999 77.792 193.777 81.12C198.641 84.448 204.145 86.112 210.289 86.112C215.751 86.112 221.127 84.832 226.417 82.272C231.793 79.6267 236.231 75.9147 239.729 71.136L243.953 74.72C240.113 80.0107 236.017 84.064 231.665 86.88C227.313 89.696 222.961 91.5733 218.609 92.512C214.343 93.536 210.46 94.048 206.961 94.048C200.561 94.048 194.673 92.896 189.297 90.592C183.921 88.288 179.271 85.088 175.345 80.992C171.505 76.8107 168.519 71.9893 166.385 66.528C164.337 60.9813 163.313 55.008 163.313 48.608C163.313 42.6347 164.252 36.7893 166.129 31.072C168.007 25.3547 170.78 20.192 174.449 15.584C178.119 10.8907 182.727 7.17866 188.273 4.44799C193.905 1.71732 200.433 0.35199 207.857 0.35199C212.209 0.35199 216.433 0.949323 220.529 2.14399C224.711 3.33866 228.721 5.17332 232.561 7.64799L231.921 1.24799H239.857V30.944H233.969Z" fill="black"/>
<path d="M48.9117 128.322C48.809 127.482 48.5197 126.838 48.0437 126.39C47.5677 125.933 46.947 125.699 46.1817 125.69C45.6963 125.69 45.2483 125.797 44.8377 126.012C44.427 126.227 44.0723 126.53 43.7737 126.922C43.475 127.305 43.2417 127.762 43.0737 128.294C42.915 128.817 42.8357 129.391 42.8357 130.016C42.8357 130.865 42.985 131.621 43.2837 132.284C43.5823 132.937 43.993 133.446 44.5157 133.81C45.0477 134.174 45.6497 134.356 46.3217 134.356C46.919 134.356 47.507 134.216 48.0857 133.936C48.6737 133.647 49.159 133.241 49.5417 132.718L50.0037 133.11C49.5837 133.689 49.1357 134.132 48.6597 134.44C48.1837 134.748 47.7077 134.953 47.2317 135.056C46.765 135.168 46.3403 135.224 45.9577 135.224C45.2577 135.224 44.6137 135.098 44.0257 134.846C43.4377 134.594 42.929 134.244 42.4997 133.796C42.0797 133.339 41.753 132.811 41.5197 132.214C41.2957 131.607 41.1837 130.954 41.1837 130.254C41.1837 129.601 41.2863 128.961 41.4917 128.336C41.697 127.711 42.0003 127.146 42.4017 126.642C42.803 126.129 43.307 125.723 43.9137 125.424C44.5297 125.125 45.2437 124.976 46.0557 124.976C46.5317 124.976 46.9937 125.041 47.4417 125.172C47.899 125.303 48.3377 125.503 48.7577 125.774L48.6877 125.074H49.5557V128.322H48.9117Z" fill="black"/>
<path d="M55.3141 134.412C55.5941 134.412 55.7901 134.347 55.9021 134.216C56.0234 134.085 56.0934 133.903 56.1121 133.67C56.1401 133.437 56.1541 133.166 56.1541 132.858L56.1401 130.898C56.1401 130.161 56.0234 129.61 55.7901 129.246C55.5661 128.873 55.2021 128.691 54.6981 128.7C54.3901 128.709 54.0867 128.784 53.7881 128.924C53.4987 129.064 53.2561 129.241 53.0601 129.456V133.264C53.0601 133.432 53.0554 133.605 53.0461 133.782C53.0367 133.95 53.0227 134.123 53.0041 134.3C53.1534 134.291 53.3027 134.286 53.4521 134.286C53.6107 134.277 53.7554 134.267 53.8861 134.258V135H50.7641V134.412C51.0441 134.412 51.2401 134.347 51.3521 134.216C51.4641 134.085 51.5341 133.903 51.5621 133.67C51.5901 133.437 51.6041 133.166 51.6041 132.858V126.53C51.6041 126.371 51.6041 126.213 51.6041 126.054C51.6134 125.886 51.6274 125.709 51.6461 125.522C51.4874 125.531 51.3194 125.541 51.1421 125.55C50.9647 125.55 50.8014 125.555 50.6521 125.564V124.822C51.0721 124.822 51.4081 124.803 51.6601 124.766C51.9121 124.719 52.1034 124.668 52.2341 124.612C52.3741 124.556 52.4767 124.495 52.5421 124.43H53.0601V128.658C53.2654 128.49 53.4941 128.341 53.7461 128.21C53.9981 128.079 54.2547 127.977 54.5161 127.902C54.7867 127.818 55.0387 127.776 55.2721 127.776C56.1027 127.776 56.6954 128.028 57.0501 128.532C57.4141 129.036 57.6007 129.825 57.6101 130.898V133.264C57.6101 133.432 57.6054 133.605 57.5961 133.782C57.5961 133.95 57.5821 134.123 57.5541 134.3C57.7034 134.291 57.8574 134.286 58.0161 134.286C58.1747 134.277 58.3194 134.267 58.4501 134.258V135H55.3141V134.412Z" fill="black"/>
<path d="M63.5523 135C63.5336 134.851 63.5196 134.72 63.5103 134.608C63.501 134.496 63.487 134.379 63.4683 134.258C63.151 134.575 62.8103 134.818 62.4463 134.986C62.0823 135.145 61.7043 135.224 61.3123 135.224C60.6403 135.224 60.1316 135.061 59.7863 134.734C59.4503 134.398 59.2823 133.983 59.2823 133.488C59.2823 133.059 59.4083 132.685 59.6603 132.368C59.9123 132.051 60.2436 131.794 60.6543 131.598C61.065 131.393 61.513 131.243 61.9983 131.15C62.4836 131.047 62.9596 130.996 63.4263 130.996V130.17C63.4263 129.871 63.3983 129.596 63.3423 129.344C63.2863 129.083 63.1696 128.873 62.9923 128.714C62.8243 128.546 62.5583 128.462 62.1943 128.462C61.9516 128.453 61.709 128.499 61.4663 128.602C61.2236 128.695 61.037 128.854 60.9063 129.078C60.981 129.153 61.0276 129.241 61.0463 129.344C61.0743 129.437 61.0883 129.526 61.0883 129.61C61.0883 129.741 61.0323 129.89 60.9203 130.058C60.8083 130.217 60.617 130.291 60.3463 130.282C60.1223 130.282 59.9496 130.207 59.8283 130.058C59.7163 129.899 59.6603 129.717 59.6603 129.512C59.6603 129.176 59.7816 128.877 60.0243 128.616C60.2763 128.355 60.617 128.149 61.0463 128C61.4756 127.851 61.9563 127.776 62.4883 127.776C63.291 127.776 63.8883 127.986 64.2803 128.406C64.6816 128.826 64.8823 129.489 64.8823 130.394C64.8823 130.73 64.8823 131.052 64.8823 131.36C64.8823 131.668 64.8776 131.976 64.8683 132.284C64.8683 132.592 64.8683 132.919 64.8683 133.264C64.8683 133.404 64.8636 133.563 64.8543 133.74C64.845 133.917 64.831 134.104 64.8123 134.3C64.971 134.291 65.1343 134.281 65.3023 134.272C65.4703 134.263 65.629 134.258 65.7783 134.258V135H63.5523ZM63.4263 131.64C63.1276 131.659 62.8196 131.701 62.5023 131.766C62.1943 131.831 61.9143 131.929 61.6623 132.06C61.4103 132.191 61.205 132.359 61.0463 132.564C60.897 132.769 60.8223 133.017 60.8223 133.306C60.841 133.623 60.9436 133.857 61.1303 134.006C61.3263 134.155 61.555 134.23 61.8163 134.23C62.143 134.23 62.4323 134.169 62.6843 134.048C62.9363 133.917 63.1836 133.74 63.4263 133.516C63.417 133.413 63.4123 133.311 63.4123 133.208C63.4123 133.096 63.4123 132.979 63.4123 132.858C63.4123 132.774 63.4123 132.62 63.4123 132.396C63.4216 132.163 63.4263 131.911 63.4263 131.64Z" fill="black"/>
<path d="M66.6821 134.412C66.9621 134.412 67.1581 134.347 67.2701 134.216C67.3821 134.085 67.4474 133.903 67.4661 133.67C67.4941 133.437 67.5081 133.166 67.5081 132.858V129.946C67.5081 129.797 67.5081 129.638 67.5081 129.47C67.5174 129.293 67.5361 129.12 67.5641 128.952C67.4054 128.961 67.2374 128.971 67.0601 128.98C66.8827 128.98 66.7194 128.985 66.5701 128.994V128.252H67.0461C67.4381 128.252 67.7367 128.21 67.9421 128.126C68.1474 128.042 68.2967 127.953 68.3901 127.86H68.8941C68.9127 127.991 68.9267 128.173 68.9361 128.406C68.9454 128.639 68.9547 128.901 68.9641 129.19C69.1414 128.929 69.3467 128.695 69.5801 128.49C69.8134 128.275 70.0654 128.103 70.3361 127.972C70.6161 127.841 70.9054 127.776 71.2041 127.776C71.4934 127.776 71.7407 127.855 71.9461 128.014C72.1607 128.163 72.2681 128.411 72.2681 128.756C72.2681 128.849 72.2401 128.957 72.1841 129.078C72.1374 129.199 72.0534 129.307 71.9321 129.4C71.8201 129.484 71.6661 129.526 71.4701 129.526C71.2741 129.517 71.1014 129.442 70.9521 129.302C70.8121 129.162 70.7467 128.971 70.7561 128.728C70.5321 128.728 70.3081 128.798 70.0841 128.938C69.8601 129.069 69.6501 129.246 69.4541 129.47C69.2674 129.694 69.1087 129.937 68.9781 130.198V133.264C68.9781 133.432 68.9734 133.605 68.9641 133.782C68.9641 133.95 68.9501 134.123 68.9221 134.3C69.0714 134.291 69.2254 134.286 69.3841 134.286C69.5427 134.277 69.6874 134.267 69.8181 134.258V135H66.6821V134.412Z" fill="black"/>
<path d="M77.0191 135C77.0004 134.851 76.9864 134.72 76.9771 134.608C76.9678 134.496 76.9538 134.379 76.9351 134.258C76.6178 134.575 76.2771 134.818 75.9131 134.986C75.5491 135.145 75.1711 135.224 74.7791 135.224C74.1071 135.224 73.5984 135.061 73.2531 134.734C72.9171 134.398 72.7491 133.983 72.7491 133.488C72.7491 133.059 72.8751 132.685 73.1271 132.368C73.3791 132.051 73.7104 131.794 74.1211 131.598C74.5318 131.393 74.9798 131.243 75.4651 131.15C75.9504 131.047 76.4264 130.996 76.8931 130.996V130.17C76.8931 129.871 76.8651 129.596 76.8091 129.344C76.7531 129.083 76.6364 128.873 76.4591 128.714C76.2911 128.546 76.0251 128.462 75.6611 128.462C75.4184 128.453 75.1757 128.499 74.9331 128.602C74.6904 128.695 74.5038 128.854 74.3731 129.078C74.4478 129.153 74.4944 129.241 74.5131 129.344C74.5411 129.437 74.5551 129.526 74.5551 129.61C74.5551 129.741 74.4991 129.89 74.3871 130.058C74.2751 130.217 74.0838 130.291 73.8131 130.282C73.5891 130.282 73.4164 130.207 73.2951 130.058C73.1831 129.899 73.1271 129.717 73.1271 129.512C73.1271 129.176 73.2484 128.877 73.4911 128.616C73.7431 128.355 74.0838 128.149 74.5131 128C74.9424 127.851 75.4231 127.776 75.9551 127.776C76.7578 127.776 77.3551 127.986 77.7471 128.406C78.1484 128.826 78.3491 129.489 78.3491 130.394C78.3491 130.73 78.3491 131.052 78.3491 131.36C78.3491 131.668 78.3444 131.976 78.3351 132.284C78.3351 132.592 78.3351 132.919 78.3351 133.264C78.3351 133.404 78.3304 133.563 78.3211 133.74C78.3117 133.917 78.2977 134.104 78.2791 134.3C78.4377 134.291 78.6011 134.281 78.7691 134.272C78.9371 134.263 79.0958 134.258 79.2451 134.258V135H77.0191ZM76.8931 131.64C76.5944 131.659 76.2864 131.701 75.9691 131.766C75.6611 131.831 75.3811 131.929 75.1291 132.06C74.8771 132.191 74.6718 132.359 74.5131 132.564C74.3638 132.769 74.2891 133.017 74.2891 133.306C74.3078 133.623 74.4104 133.857 74.5971 134.006C74.7931 134.155 75.0218 134.23 75.2831 134.23C75.6098 134.23 75.8991 134.169 76.1511 134.048C76.4031 133.917 76.6504 133.74 76.8931 133.516C76.8838 133.413 76.8791 133.311 76.8791 133.208C76.8791 133.096 76.8791 132.979 76.8791 132.858C76.8791 132.774 76.8791 132.62 76.8791 132.396C76.8884 132.163 76.8931 131.911 76.8931 131.64Z" fill="black"/>
<path d="M83.5229 135.224C82.8975 135.224 82.3235 135.084 81.8008 134.804C81.2782 134.515 80.8582 134.104 80.5408 133.572C80.2328 133.04 80.0788 132.396 80.0788 131.64C80.0788 131.136 80.1675 130.655 80.3448 130.198C80.5222 129.731 80.7695 129.316 81.0869 128.952C81.4135 128.588 81.7962 128.303 82.2348 128.098C82.6828 127.883 83.1775 127.776 83.7188 127.776C84.2695 127.776 84.7409 127.86 85.1329 128.028C85.5249 128.196 85.8235 128.415 86.0289 128.686C86.2435 128.957 86.3509 129.251 86.3509 129.568C86.3509 129.792 86.2855 129.988 86.1549 130.156C86.0242 130.324 85.8375 130.408 85.5948 130.408C85.3242 130.417 85.1329 130.338 85.0209 130.17C84.9089 129.993 84.8529 129.829 84.8529 129.68C84.8529 129.596 84.8669 129.503 84.8949 129.4C84.9229 129.288 84.9742 129.19 85.0489 129.106C84.9742 128.91 84.8529 128.765 84.6849 128.672C84.5169 128.579 84.3442 128.518 84.1669 128.49C83.9895 128.462 83.8402 128.448 83.7188 128.448C83.1495 128.457 82.6688 128.705 82.2768 129.19C81.8942 129.666 81.7029 130.357 81.7029 131.262C81.7029 131.841 81.7868 132.359 81.9548 132.816C82.1322 133.273 82.3889 133.637 82.7249 133.908C83.0609 134.179 83.4622 134.319 83.9288 134.328C84.3488 134.328 84.7549 134.221 85.1469 134.006C85.5389 133.782 85.8562 133.502 86.0989 133.166L86.5469 133.558C86.2762 133.978 85.9635 134.309 85.6088 134.552C85.2635 134.795 84.9089 134.967 84.5449 135.07C84.1902 135.173 83.8495 135.224 83.5229 135.224Z" fill="black"/>
<path d="M90.1646 135.224C89.9313 135.224 89.698 135.191 89.4646 135.126C89.2313 135.07 89.012 134.953 88.8066 134.776C88.6106 134.589 88.4567 134.323 88.3447 133.978C88.2327 133.633 88.1767 133.175 88.1767 132.606L88.2047 128.784H87.1686V128C87.4206 127.991 87.6773 127.897 87.9386 127.72C88.2 127.543 88.4286 127.305 88.6246 127.006C88.8206 126.707 88.956 126.385 89.0306 126.04H89.6886V128H91.8447V128.728L89.6886 128.756L89.6606 132.494C89.6606 132.849 89.6887 133.161 89.7447 133.432C89.81 133.693 89.9127 133.899 90.0527 134.048C90.202 134.188 90.4026 134.258 90.6546 134.258C90.8693 134.258 91.0886 134.193 91.3126 134.062C91.546 133.931 91.7653 133.717 91.9706 133.418L92.4466 133.838C92.2226 134.165 91.9987 134.421 91.7747 134.608C91.5507 134.795 91.336 134.93 91.1306 135.014C90.9253 135.107 90.7386 135.163 90.5706 135.182C90.4026 135.21 90.2673 135.224 90.1646 135.224Z" fill="black"/>
<path d="M96.4014 135.224C95.7481 135.224 95.1601 135.075 94.6374 134.776C94.1241 134.468 93.7181 134.039 93.4194 133.488C93.1208 132.928 92.9714 132.27 92.9714 131.514C92.9714 130.861 93.1161 130.249 93.4054 129.68C93.7041 129.111 94.1194 128.653 94.6514 128.308C95.1834 127.953 95.7994 127.776 96.4994 127.776C96.8914 127.776 97.2601 127.837 97.6054 127.958C97.9601 128.079 98.2728 128.271 98.5434 128.532C98.8234 128.784 99.0428 129.115 99.2014 129.526C99.3601 129.927 99.4394 130.417 99.4394 130.996L94.6234 131.08C94.6234 131.715 94.6934 132.279 94.8334 132.774C94.9828 133.269 95.2208 133.651 95.5474 133.922C95.8741 134.193 96.2988 134.328 96.8214 134.328C97.0734 134.328 97.3394 134.286 97.6194 134.202C97.9088 134.109 98.1794 133.978 98.4314 133.81C98.6928 133.642 98.9121 133.441 99.0894 133.208L99.5234 133.586C99.2434 134.006 98.9214 134.337 98.5574 134.58C98.1934 134.813 97.8201 134.977 97.4374 135.07C97.0641 135.173 96.7188 135.224 96.4014 135.224ZM94.6794 130.352H97.9134C97.9134 129.997 97.8621 129.68 97.7594 129.4C97.6661 129.111 97.5168 128.882 97.3114 128.714C97.1061 128.546 96.8448 128.462 96.5274 128.462C96.0328 128.462 95.6268 128.621 95.3094 128.938C94.9921 129.246 94.7821 129.717 94.6794 130.352Z" fill="black"/>
<path d="M100.616 134.412C100.896 134.412 101.092 134.347 101.204 134.216C101.316 134.085 101.381 133.903 101.4 133.67C101.428 133.437 101.442 133.166 101.442 132.858V129.946C101.442 129.797 101.442 129.638 101.442 129.47C101.451 129.293 101.47 129.12 101.498 128.952C101.339 128.961 101.171 128.971 100.994 128.98C100.816 128.98 100.653 128.985 100.504 128.994V128.252H100.98C101.372 128.252 101.67 128.21 101.876 128.126C102.081 128.042 102.23 127.953 102.324 127.86H102.828C102.846 127.991 102.86 128.173 102.87 128.406C102.879 128.639 102.888 128.901 102.898 129.19C103.075 128.929 103.28 128.695 103.514 128.49C103.747 128.275 103.999 128.103 104.27 127.972C104.55 127.841 104.839 127.776 105.138 127.776C105.427 127.776 105.674 127.855 105.88 128.014C106.094 128.163 106.202 128.411 106.202 128.756C106.202 128.849 106.174 128.957 106.118 129.078C106.071 129.199 105.987 129.307 105.866 129.4C105.754 129.484 105.6 129.526 105.404 129.526C105.208 129.517 105.035 129.442 104.886 129.302C104.746 129.162 104.68 128.971 104.69 128.728C104.466 128.728 104.242 128.798 104.018 128.938C103.794 129.069 103.584 129.246 103.388 129.47C103.201 129.694 103.042 129.937 102.912 130.198V133.264C102.912 133.432 102.907 133.605 102.898 133.782C102.898 133.95 102.884 134.123 102.856 134.3C103.005 134.291 103.159 134.286 103.318 134.286C103.476 134.277 103.621 134.267 103.752 134.258V135H100.616V134.412Z" fill="black"/>
<path d="M116.28 128.224C116.234 127.748 116.112 127.319 115.916 126.936C115.72 126.553 115.45 126.25 115.104 126.026C114.759 125.793 114.33 125.681 113.816 125.69C113.294 125.69 112.878 125.835 112.57 126.124C112.262 126.413 112.108 126.763 112.108 127.174C112.108 127.538 112.211 127.846 112.416 128.098C112.622 128.341 112.897 128.56 113.242 128.756C113.597 128.952 113.994 129.148 114.432 129.344C114.787 129.493 115.146 129.661 115.51 129.848C115.874 130.035 116.206 130.249 116.504 130.492C116.803 130.725 117.041 131.01 117.218 131.346C117.396 131.673 117.484 132.06 117.484 132.508C117.484 133.031 117.349 133.497 117.078 133.908C116.808 134.319 116.42 134.641 115.916 134.874C115.422 135.107 114.82 135.224 114.11 135.224C113.709 135.224 113.284 135.163 112.836 135.042C112.398 134.921 111.996 134.748 111.632 134.524L111.702 135.112H110.848L110.792 132.032H111.464C111.539 132.844 111.828 133.46 112.332 133.88C112.846 134.291 113.457 134.496 114.166 134.496C114.521 134.496 114.843 134.431 115.132 134.3C115.422 134.169 115.65 133.983 115.818 133.74C115.986 133.497 116.07 133.213 116.07 132.886C116.07 132.503 115.954 132.181 115.72 131.92C115.496 131.659 115.207 131.435 114.852 131.248C114.507 131.061 114.143 130.884 113.76 130.716C113.378 130.548 113.004 130.371 112.64 130.184C112.286 129.997 111.964 129.783 111.674 129.54C111.385 129.297 111.156 129.013 110.988 128.686C110.82 128.35 110.736 127.958 110.736 127.51C110.736 127.249 110.783 126.973 110.876 126.684C110.97 126.395 111.128 126.119 111.352 125.858C111.576 125.597 111.88 125.387 112.262 125.228C112.654 125.06 113.144 124.976 113.732 124.976C114.087 124.976 114.484 125.027 114.922 125.13C115.37 125.233 115.776 125.415 116.14 125.676L116.084 125.088H116.924V128.224H116.28Z" fill="black"/>
<path d="M123.017 134.412C123.297 134.412 123.493 134.347 123.605 134.216C123.727 134.085 123.797 133.903 123.815 133.67C123.843 133.437 123.857 133.166 123.857 132.858L123.843 130.898C123.843 130.161 123.727 129.61 123.493 129.246C123.269 128.873 122.905 128.691 122.401 128.7C122.093 128.709 121.79 128.784 121.491 128.924C121.202 129.064 120.959 129.241 120.763 129.456V133.264C120.763 133.432 120.759 133.605 120.749 133.782C120.74 133.95 120.726 134.123 120.707 134.3C120.857 134.291 121.006 134.286 121.155 134.286C121.314 134.277 121.459 134.267 121.589 134.258V135H118.467V134.412C118.747 134.412 118.943 134.347 119.055 134.216C119.167 134.085 119.237 133.903 119.265 133.67C119.293 133.437 119.307 133.166 119.307 132.858V126.53C119.307 126.371 119.307 126.213 119.307 126.054C119.317 125.886 119.331 125.709 119.349 125.522C119.191 125.531 119.023 125.541 118.845 125.55C118.668 125.55 118.505 125.555 118.355 125.564V124.822C118.775 124.822 119.111 124.803 119.363 124.766C119.615 124.719 119.807 124.668 119.937 124.612C120.077 124.556 120.18 124.495 120.245 124.43H120.763V128.658C120.969 128.49 121.197 128.341 121.449 128.21C121.701 128.079 121.958 127.977 122.219 127.902C122.49 127.818 122.742 127.776 122.975 127.776C123.806 127.776 124.399 128.028 124.753 128.532C125.117 129.036 125.304 129.825 125.313 130.898V133.264C125.313 133.432 125.309 133.605 125.299 133.782C125.299 133.95 125.285 134.123 125.257 134.3C125.407 134.291 125.561 134.286 125.719 134.286C125.878 134.277 126.023 134.267 126.153 134.258V135H123.017V134.412Z" fill="black"/>
<path d="M130.485 135.224C129.832 135.224 129.244 135.075 128.721 134.776C128.208 134.468 127.802 134.039 127.503 133.488C127.205 132.928 127.055 132.27 127.055 131.514C127.055 130.861 127.2 130.249 127.489 129.68C127.788 129.111 128.203 128.653 128.735 128.308C129.267 127.953 129.883 127.776 130.583 127.776C130.975 127.776 131.344 127.837 131.689 127.958C132.044 128.079 132.357 128.271 132.627 128.532C132.907 128.784 133.127 129.115 133.285 129.526C133.444 129.927 133.523 130.417 133.523 130.996L128.707 131.08C128.707 131.715 128.777 132.279 128.917 132.774C129.067 133.269 129.305 133.651 129.631 133.922C129.958 134.193 130.383 134.328 130.905 134.328C131.157 134.328 131.423 134.286 131.703 134.202C131.993 134.109 132.263 133.978 132.515 133.81C132.777 133.642 132.996 133.441 133.173 133.208L133.607 133.586C133.327 134.006 133.005 134.337 132.641 134.58C132.277 134.813 131.904 134.977 131.521 135.07C131.148 135.173 130.803 135.224 130.485 135.224ZM128.763 130.352H131.997C131.997 129.997 131.946 129.68 131.843 129.4C131.75 129.111 131.601 128.882 131.395 128.714C131.19 128.546 130.929 128.462 130.611 128.462C130.117 128.462 129.711 128.621 129.393 128.938C129.076 129.246 128.866 129.717 128.763 130.352Z" fill="black"/>
<path d="M138.019 135.224C137.365 135.224 136.777 135.075 136.255 134.776C135.741 134.468 135.335 134.039 135.037 133.488C134.738 132.928 134.589 132.27 134.589 131.514C134.589 130.861 134.733 130.249 135.023 129.68C135.321 129.111 135.737 128.653 136.269 128.308C136.801 127.953 137.417 127.776 138.117 127.776C138.509 127.776 138.877 127.837 139.223 127.958C139.577 128.079 139.89 128.271 140.161 128.532C140.441 128.784 140.66 129.115 140.819 129.526C140.977 129.927 141.057 130.417 141.057 130.996L136.241 131.08C136.241 131.715 136.311 132.279 136.451 132.774C136.6 133.269 136.838 133.651 137.165 133.922C137.491 134.193 137.916 134.328 138.439 134.328C138.691 134.328 138.957 134.286 139.237 134.202C139.526 134.109 139.797 133.978 140.049 133.81C140.31 133.642 140.529 133.441 140.707 133.208L141.141 133.586C140.861 134.006 140.539 134.337 140.175 134.58C139.811 134.813 139.437 134.977 139.055 135.07C138.681 135.173 138.336 135.224 138.019 135.224ZM136.297 130.352H139.531C139.531 129.997 139.479 129.68 139.377 129.4C139.283 129.111 139.134 128.882 138.929 128.714C138.723 128.546 138.462 128.462 138.145 128.462C137.65 128.462 137.244 128.621 136.927 128.938C136.609 129.246 136.399 129.717 136.297 130.352Z" fill="black"/>
<path d="M144.838 135.224C144.605 135.224 144.372 135.191 144.138 135.126C143.905 135.07 143.686 134.953 143.48 134.776C143.284 134.589 143.13 134.323 143.018 133.978C142.906 133.633 142.85 133.175 142.85 132.606L142.878 128.784H141.842V128C142.094 127.991 142.351 127.897 142.612 127.72C142.874 127.543 143.102 127.305 143.298 127.006C143.494 126.707 143.63 126.385 143.704 126.04H144.362V128H146.518V128.728L144.362 128.756L144.334 132.494C144.334 132.849 144.362 133.161 144.418 133.432C144.484 133.693 144.586 133.899 144.726 134.048C144.876 134.188 145.076 134.258 145.328 134.258C145.543 134.258 145.762 134.193 145.986 134.062C146.22 133.931 146.439 133.717 146.644 133.418L147.12 133.838C146.896 134.165 146.672 134.421 146.448 134.608C146.224 134.795 146.01 134.93 145.804 135.014C145.599 135.107 145.412 135.163 145.244 135.182C145.076 135.21 144.941 135.224 144.838 135.224Z" fill="black"/>
<path d="M159.107 128.322C159.004 127.482 158.715 126.838 158.239 126.39C157.763 125.933 157.142 125.699 156.377 125.69C155.892 125.69 155.444 125.797 155.033 126.012C154.622 126.227 154.268 126.53 153.969 126.922C153.67 127.305 153.437 127.762 153.269 128.294C153.11 128.817 153.031 129.391 153.031 130.016C153.031 130.865 153.18 131.621 153.479 132.284C153.778 132.937 154.188 133.446 154.711 133.81C155.243 134.174 155.845 134.356 156.517 134.356C157.114 134.356 157.702 134.216 158.281 133.936C158.869 133.647 159.354 133.241 159.737 132.718L160.199 133.11C159.779 133.689 159.331 134.132 158.855 134.44C158.379 134.748 157.903 134.953 157.427 135.056C156.96 135.168 156.536 135.224 156.153 135.224C155.453 135.224 154.809 135.098 154.221 134.846C153.633 134.594 153.124 134.244 152.695 133.796C152.275 133.339 151.948 132.811 151.715 132.214C151.491 131.607 151.379 130.954 151.379 130.254C151.379 129.601 151.482 128.961 151.687 128.336C151.892 127.711 152.196 127.146 152.597 126.642C152.998 126.129 153.502 125.723 154.109 125.424C154.725 125.125 155.439 124.976 156.251 124.976C156.727 124.976 157.189 125.041 157.637 125.172C158.094 125.303 158.533 125.503 158.953 125.774L158.883 125.074H159.751V128.322H159.107Z" fill="black"/>
<path d="M161.127 134.412C161.407 134.412 161.603 134.347 161.715 134.216C161.827 134.085 161.893 133.903 161.911 133.67C161.939 133.437 161.953 133.166 161.953 132.858V129.946C161.953 129.797 161.953 129.638 161.953 129.47C161.963 129.293 161.981 129.12 162.009 128.952C161.851 128.961 161.683 128.971 161.505 128.98C161.328 128.98 161.165 128.985 161.015 128.994V128.252H161.491C161.883 128.252 162.182 128.21 162.387 128.126C162.593 128.042 162.742 127.953 162.835 127.86H163.339C163.358 127.991 163.372 128.173 163.381 128.406C163.391 128.639 163.4 128.901 163.409 129.19C163.587 128.929 163.792 128.695 164.025 128.49C164.259 128.275 164.511 128.103 164.781 127.972C165.061 127.841 165.351 127.776 165.649 127.776C165.939 127.776 166.186 127.855 166.391 128.014C166.606 128.163 166.713 128.411 166.713 128.756C166.713 128.849 166.685 128.957 166.629 129.078C166.583 129.199 166.499 129.307 166.377 129.4C166.265 129.484 166.111 129.526 165.915 129.526C165.719 129.517 165.547 129.442 165.397 129.302C165.257 129.162 165.192 128.971 165.201 128.728C164.977 128.728 164.753 128.798 164.529 128.938C164.305 129.069 164.095 129.246 163.899 129.47C163.713 129.694 163.554 129.937 163.423 130.198V133.264C163.423 133.432 163.419 133.605 163.409 133.782C163.409 133.95 163.395 134.123 163.367 134.3C163.517 134.291 163.671 134.286 163.829 134.286C163.988 134.277 164.133 134.267 164.263 134.258V135H161.127V134.412Z" fill="black"/>
<path d="M170.681 135.224C170.027 135.224 169.439 135.075 168.917 134.776C168.403 134.468 167.997 134.039 167.699 133.488C167.4 132.928 167.251 132.27 167.251 131.514C167.251 130.861 167.395 130.249 167.685 129.68C167.983 129.111 168.399 128.653 168.931 128.308C169.463 127.953 170.079 127.776 170.779 127.776C171.171 127.776 171.539 127.837 171.885 127.958C172.239 128.079 172.552 128.271 172.823 128.532C173.103 128.784 173.322 129.115 173.481 129.526C173.639 129.927 173.719 130.417 173.719 130.996L168.903 131.08C168.903 131.715 168.973 132.279 169.113 132.774C169.262 133.269 169.5 133.651 169.827 133.922C170.153 134.193 170.578 134.328 171.101 134.328C171.353 134.328 171.619 134.286 171.899 134.202C172.188 134.109 172.459 133.978 172.711 133.81C172.972 133.642 173.191 133.441 173.369 133.208L173.803 133.586C173.523 134.006 173.201 134.337 172.837 134.58C172.473 134.813 172.099 134.977 171.717 135.07C171.343 135.173 170.998 135.224 170.681 135.224ZM168.959 130.352H172.193C172.193 129.997 172.141 129.68 172.039 129.4C171.945 129.111 171.796 128.882 171.591 128.714C171.385 128.546 171.124 128.462 170.807 128.462C170.312 128.462 169.906 128.621 169.589 128.938C169.271 129.246 169.061 129.717 168.959 130.352Z" fill="black"/>
<path d="M179.011 135C178.993 134.851 178.979 134.72 178.969 134.608C178.96 134.496 178.946 134.379 178.927 134.258C178.61 134.575 178.269 134.818 177.905 134.986C177.541 135.145 177.163 135.224 176.771 135.224C176.099 135.224 175.591 135.061 175.245 134.734C174.909 134.398 174.741 133.983 174.741 133.488C174.741 133.059 174.867 132.685 175.119 132.368C175.371 132.051 175.703 131.794 176.113 131.598C176.524 131.393 176.972 131.243 177.457 131.15C177.943 131.047 178.419 130.996 178.885 130.996V130.17C178.885 129.871 178.857 129.596 178.801 129.344C178.745 129.083 178.629 128.873 178.451 128.714C178.283 128.546 178.017 128.462 177.653 128.462C177.411 128.453 177.168 128.499 176.925 128.602C176.683 128.695 176.496 128.854 176.365 129.078C176.44 129.153 176.487 129.241 176.505 129.344C176.533 129.437 176.547 129.526 176.547 129.61C176.547 129.741 176.491 129.89 176.379 130.058C176.267 130.217 176.076 130.291 175.805 130.282C175.581 130.282 175.409 130.207 175.287 130.058C175.175 129.899 175.119 129.717 175.119 129.512C175.119 129.176 175.241 128.877 175.483 128.616C175.735 128.355 176.076 128.149 176.505 128C176.935 127.851 177.415 127.776 177.947 127.776C178.75 127.776 179.347 127.986 179.739 128.406C180.141 128.826 180.341 129.489 180.341 130.394C180.341 130.73 180.341 131.052 180.341 131.36C180.341 131.668 180.337 131.976 180.327 132.284C180.327 132.592 180.327 132.919 180.327 133.264C180.327 133.404 180.323 133.563 180.313 133.74C180.304 133.917 180.29 134.104 180.271 134.3C180.43 134.291 180.593 134.281 180.761 134.272C180.929 134.263 181.088 134.258 181.237 134.258V135H179.011ZM178.885 131.64C178.587 131.659 178.279 131.701 177.961 131.766C177.653 131.831 177.373 131.929 177.121 132.06C176.869 132.191 176.664 132.359 176.505 132.564C176.356 132.769 176.281 133.017 176.281 133.306C176.3 133.623 176.403 133.857 176.589 134.006C176.785 134.155 177.014 134.23 177.275 134.23C177.602 134.23 177.891 134.169 178.143 134.048C178.395 133.917 178.643 133.74 178.885 133.516C178.876 133.413 178.871 133.311 178.871 133.208C178.871 133.096 178.871 132.979 178.871 132.858C178.871 132.774 178.871 132.62 178.871 132.396C178.881 132.163 178.885 131.911 178.885 131.64Z" fill="black"/>
<path d="M184.733 135.224C184.5 135.224 184.266 135.191 184.033 135.126C183.8 135.07 183.58 134.953 183.375 134.776C183.179 134.589 183.025 134.323 182.913 133.978C182.801 133.633 182.745 133.175 182.745 132.606L182.773 128.784H181.737V128C181.989 127.991 182.246 127.897 182.507 127.72C182.768 127.543 182.997 127.305 183.193 127.006C183.389 126.707 183.524 126.385 183.599 126.04H184.257V128H186.413V128.728L184.257 128.756L184.229 132.494C184.229 132.849 184.257 133.161 184.313 133.432C184.378 133.693 184.481 133.899 184.621 134.048C184.77 134.188 184.971 134.258 185.223 134.258C185.438 134.258 185.657 134.193 185.881 134.062C186.114 133.931 186.334 133.717 186.539 133.418L187.015 133.838C186.791 134.165 186.567 134.421 186.343 134.608C186.119 134.795 185.904 134.93 185.699 135.014C185.494 135.107 185.307 135.163 185.139 135.182C184.971 135.21 184.836 135.224 184.733 135.224Z" fill="black"/>
<path d="M191.068 135.224C190.405 135.224 189.808 135.075 189.276 134.776C188.744 134.477 188.319 134.062 188.002 133.53C187.694 132.989 187.54 132.368 187.54 131.668C187.54 130.912 187.694 130.245 188.002 129.666C188.319 129.078 188.744 128.616 189.276 128.28C189.808 127.944 190.4 127.776 191.054 127.776C191.716 127.776 192.314 127.93 192.846 128.238C193.378 128.537 193.798 128.957 194.106 129.498C194.423 130.03 194.582 130.646 194.582 131.346C194.582 132.083 194.428 132.746 194.12 133.334C193.812 133.922 193.392 134.384 192.86 134.72C192.337 135.056 191.74 135.224 191.068 135.224ZM191.166 134.524C191.614 134.515 191.964 134.375 192.216 134.104C192.477 133.833 192.664 133.488 192.776 133.068C192.888 132.639 192.944 132.195 192.944 131.738C192.944 131.337 192.906 130.945 192.832 130.562C192.766 130.17 192.659 129.815 192.51 129.498C192.36 129.181 192.164 128.929 191.922 128.742C191.679 128.546 191.385 128.453 191.04 128.462C190.601 128.462 190.242 128.597 189.962 128.868C189.691 129.139 189.49 129.489 189.36 129.918C189.238 130.338 189.178 130.786 189.178 131.262C189.178 131.813 189.248 132.335 189.388 132.83C189.528 133.325 189.742 133.731 190.032 134.048C190.33 134.365 190.708 134.524 191.166 134.524Z" fill="black"/>
<path d="M195.717 134.412C195.997 134.412 196.193 134.347 196.305 134.216C196.417 134.085 196.483 133.903 196.501 133.67C196.529 133.437 196.543 133.166 196.543 132.858V129.946C196.543 129.797 196.543 129.638 196.543 129.47C196.553 129.293 196.571 129.12 196.599 128.952C196.441 128.961 196.273 128.971 196.095 128.98C195.918 128.98 195.755 128.985 195.605 128.994V128.252H196.081C196.473 128.252 196.772 128.21 196.977 128.126C197.183 128.042 197.332 127.953 197.425 127.86H197.929C197.948 127.991 197.962 128.173 197.971 128.406C197.981 128.639 197.99 128.901 197.999 129.19C198.177 128.929 198.382 128.695 198.615 128.49C198.849 128.275 199.101 128.103 199.371 127.972C199.651 127.841 199.941 127.776 200.239 127.776C200.529 127.776 200.776 127.855 200.981 128.014C201.196 128.163 201.303 128.411 201.303 128.756C201.303 128.849 201.275 128.957 201.219 129.078C201.173 129.199 201.089 129.307 200.967 129.4C200.855 129.484 200.701 129.526 200.505 129.526C200.309 129.517 200.137 129.442 199.987 129.302C199.847 129.162 199.782 128.971 199.791 128.728C199.567 128.728 199.343 128.798 199.119 128.938C198.895 129.069 198.685 129.246 198.489 129.47C198.303 129.694 198.144 129.937 198.013 130.198V133.264C198.013 133.432 198.009 133.605 197.999 133.782C197.999 133.95 197.985 134.123 197.957 134.3C198.107 134.291 198.261 134.286 198.419 134.286C198.578 134.277 198.723 134.267 198.853 134.258V135H195.717V134.412Z" fill="black"/>
</svg>
