<svg width="184" height="94" viewBox="0 0 184 94" fill="none" xmlns="http://www.w3.org/2000/svg">
<path d="M53.5709 23.208C52.8669 17.448 50.8829 13.032 47.6189 9.96001C44.3549 6.82401 40.0989 5.22401 34.8509 5.16001C31.5229 5.16001 28.4509 5.89601 25.6349 7.36801C22.8189 8.84001 20.3869 10.92 18.3389 13.608C16.2909 16.232 14.6909 19.368 13.5389 23.016C12.4509 26.6 11.9069 30.536 11.9069 34.824C11.9069 40.648 12.9309 45.832 14.9789 50.376C17.0269 54.856 19.8429 58.344 23.4269 60.84C27.0749 63.336 31.2029 64.584 35.8109 64.584C39.9069 64.584 43.9389 63.624 47.9069 61.704C51.9389 59.72 55.2669 56.936 57.8909 53.352L61.0589 56.04C58.1789 60.008 55.1069 63.048 51.8429 65.16C48.5789 67.272 45.3149 68.68 42.0509 69.384C38.8509 70.152 35.9389 70.536 33.3149 70.536C28.5149 70.536 24.0989 69.672 20.0669 67.944C16.0349 66.216 12.5469 63.816 9.60286 60.744C6.72286 57.608 4.48286 53.992 2.88286 49.896C1.34686 45.736 0.578857 41.256 0.578857 36.456C0.578857 31.976 1.28286 27.592 2.69086 23.304C4.09886 19.016 6.17886 15.144 8.93086 11.688C11.6829 8.16801 15.1389 5.38401 19.2989 3.33601C23.5229 1.28801 28.4189 0.264008 33.9869 0.264008C37.2509 0.264008 40.4189 0.712008 43.4909 1.60801C46.6269 2.50401 49.6349 3.88001 52.5149 5.73601L52.0349 0.936005H57.9869V23.208H53.5709Z" fill="white"/>
<path d="M106.497 22.536C106.177 19.272 105.345 16.328 104.001 13.704C102.657 11.08 100.801 9.00001 98.4329 7.46401C96.0649 5.86401 93.1209 5.09601 89.6009 5.16001C86.0169 5.16001 83.1689 6.15201 81.0569 8.13601C78.9449 10.12 77.8889 12.52 77.8889 15.336C77.8889 17.832 78.5929 19.944 80.0009 21.672C81.4089 23.336 83.2969 24.84 85.6649 26.184C88.0969 27.528 90.8169 28.872 93.8249 30.216C96.2569 31.24 98.7209 32.392 101.217 33.672C103.713 34.952 105.985 36.424 108.033 38.088C110.081 39.688 111.713 41.64 112.929 43.944C114.145 46.184 114.753 48.84 114.753 51.912C114.753 55.496 113.825 58.696 111.969 61.512C110.113 64.328 107.457 66.536 104.001 68.136C100.609 69.736 96.4809 70.536 91.6169 70.536C88.8649 70.536 85.9529 70.12 82.8809 69.288C79.8729 68.456 77.1209 67.272 74.6249 65.736L75.1049 69.768H69.2489L68.8649 48.648H73.4729C73.9849 54.216 75.9689 58.44 79.4249 61.32C82.9449 64.136 87.1369 65.544 92.0009 65.544C94.4329 65.544 96.6409 65.096 98.6249 64.2C100.609 63.304 102.177 62.024 103.329 60.36C104.481 58.696 105.057 56.744 105.057 54.504C105.057 51.88 104.257 49.672 102.657 47.88C101.121 46.088 99.1369 44.552 96.7049 43.272C94.3369 41.992 91.8409 40.776 89.2169 39.624C86.5929 38.472 84.0329 37.256 81.5369 35.976C79.1049 34.696 76.8969 33.224 74.9129 31.56C72.9289 29.896 71.3609 27.944 70.2089 25.704C69.0569 23.4 68.4809 20.712 68.4809 17.64C68.4809 15.848 68.8009 13.96 69.4409 11.976C70.0809 9.99201 71.1689 8.10401 72.7049 6.312C74.2409 4.52 76.3209 3.08001 78.9449 1.99201C81.6329 0.840008 84.9929 0.264008 89.0249 0.264008C91.4569 0.264008 94.1769 0.616007 97.1849 1.32001C100.257 2.02401 103.041 3.27201 105.537 5.06401L105.153 1.03201H110.913V22.536H106.497Z" fill="white"/>
<path d="M175.727 23.208C175.023 17.448 173.039 13.032 169.775 9.96001C166.511 6.82401 162.255 5.22401 157.007 5.16001C153.679 5.16001 150.607 5.89601 147.791 7.36801C144.975 8.84001 142.543 10.92 140.495 13.608C138.447 16.232 136.847 19.368 135.695 23.016C134.607 26.6 134.063 30.536 134.063 34.824C134.063 40.648 135.087 45.832 137.135 50.376C139.183 54.856 141.999 58.344 145.583 60.84C149.231 63.336 153.359 64.584 157.967 64.584C162.063 64.584 166.095 63.624 170.063 61.704C174.095 59.72 177.423 56.936 180.047 53.352L183.215 56.04C180.335 60.008 177.263 63.048 173.999 65.16C170.735 67.272 167.471 68.68 164.207 69.384C161.007 70.152 158.095 70.536 155.471 70.536C150.671 70.536 146.255 69.672 142.223 67.944C138.191 66.216 134.703 63.816 131.759 60.744C128.879 57.608 126.639 53.992 125.039 49.896C123.503 45.736 122.735 41.256 122.735 36.456C122.735 31.976 123.439 27.592 124.847 23.304C126.255 19.016 128.335 15.144 131.087 11.688C133.839 8.16801 137.295 5.38401 141.455 3.33601C145.679 1.28801 150.575 0.264008 156.143 0.264008C159.407 0.264008 162.575 0.712008 165.647 1.60801C168.783 2.50401 171.791 3.88001 174.671 5.73601L174.191 0.936005H180.143V23.208H175.727Z" fill="white"/>
<path d="M18.9117 86.322C18.809 85.482 18.5197 84.838 18.0437 84.39C17.5677 83.9327 16.947 83.6993 16.1817 83.69C15.6964 83.69 15.2484 83.7973 14.8377 84.012C14.427 84.2267 14.0724 84.53 13.7737 84.922C13.475 85.3047 13.2417 85.762 13.0737 86.294C12.915 86.8167 12.8357 87.3907 12.8357 88.016C12.8357 88.8653 12.985 89.6213 13.2837 90.284C13.5824 90.9373 13.993 91.446 14.5157 91.81C15.0477 92.174 15.6497 92.356 16.3217 92.356C16.919 92.356 17.507 92.216 18.0857 91.936C18.6737 91.6467 19.159 91.2407 19.5417 90.718L20.0037 91.11C19.5837 91.6887 19.1357 92.132 18.6597 92.44C18.1837 92.748 17.7077 92.9533 17.2317 93.056C16.765 93.168 16.3404 93.224 15.9577 93.224C15.2577 93.224 14.6137 93.098 14.0257 92.846C13.4377 92.594 12.929 92.244 12.4997 91.796C12.0797 91.3387 11.753 90.8113 11.5197 90.214C11.2957 89.6073 11.1837 88.954 11.1837 88.254C11.1837 87.6007 11.2864 86.9613 11.4917 86.336C11.697 85.7107 12.0004 85.146 12.4017 84.642C12.803 84.1287 13.307 83.7227 13.9137 83.424C14.5297 83.1253 15.2437 82.976 16.0557 82.976C16.5317 82.976 16.9937 83.0413 17.4417 83.172C17.899 83.3027 18.3377 83.5033 18.7577 83.774L18.6877 83.074H19.5557V86.322H18.9117Z" fill="white"/>
<path d="M25.3141 92.412C25.5941 92.412 25.7901 92.3467 25.9021 92.216C26.0234 92.0853 26.0934 91.9033 26.1121 91.67C26.1401 91.4367 26.1541 91.166 26.1541 90.858L26.1401 88.898C26.1401 88.1607 26.0234 87.61 25.7901 87.246C25.5661 86.8727 25.2021 86.6907 24.6981 86.7C24.3901 86.7093 24.0867 86.784 23.7881 86.924C23.4987 87.064 23.2561 87.2413 23.0601 87.456V91.264C23.0601 91.432 23.0554 91.6047 23.0461 91.782C23.0367 91.95 23.0227 92.1227 23.0041 92.3C23.1534 92.2907 23.3027 92.286 23.4521 92.286C23.6107 92.2767 23.7554 92.2673 23.8861 92.258V93H20.7641V92.412C21.0441 92.412 21.2401 92.3467 21.3521 92.216C21.4641 92.0853 21.5341 91.9033 21.5621 91.67C21.5901 91.4367 21.6041 91.166 21.6041 90.858V84.53C21.6041 84.3713 21.6041 84.2127 21.6041 84.054C21.6134 83.886 21.6274 83.7087 21.6461 83.522C21.4874 83.5313 21.3194 83.5407 21.1421 83.55C20.9647 83.55 20.8014 83.5547 20.6521 83.564V82.822C21.0721 82.822 21.4081 82.8033 21.6601 82.766C21.9121 82.7193 22.1034 82.668 22.2341 82.612C22.3741 82.556 22.4767 82.4953 22.5421 82.43H23.0601V86.658C23.2654 86.49 23.4941 86.3407 23.7461 86.21C23.9981 86.0793 24.2547 85.9767 24.5161 85.902C24.7867 85.818 25.0387 85.776 25.2721 85.776C26.1027 85.776 26.6954 86.028 27.0501 86.532C27.4141 87.036 27.6007 87.8247 27.6101 88.898V91.264C27.6101 91.432 27.6054 91.6047 27.5961 91.782C27.5961 91.95 27.5821 92.1227 27.5541 92.3C27.7034 92.2907 27.8574 92.286 28.0161 92.286C28.1747 92.2767 28.3194 92.2673 28.4501 92.258V93H25.3141V92.412Z" fill="white"/>
<path d="M33.5523 93C33.5336 92.8507 33.5196 92.72 33.5103 92.608C33.501 92.496 33.487 92.3793 33.4683 92.258C33.151 92.5753 32.8103 92.818 32.4463 92.986C32.0823 93.1447 31.7043 93.224 31.3123 93.224C30.6403 93.224 30.1316 93.0607 29.7863 92.734C29.4503 92.398 29.2823 91.9827 29.2823 91.488C29.2823 91.0587 29.4083 90.6853 29.6603 90.368C29.9123 90.0507 30.2436 89.794 30.6543 89.598C31.065 89.3927 31.513 89.2433 31.9983 89.15C32.4836 89.0473 32.9596 88.996 33.4263 88.996V88.17C33.4263 87.8713 33.3983 87.596 33.3423 87.344C33.2863 87.0827 33.1696 86.8727 32.9923 86.714C32.8243 86.546 32.5583 86.462 32.1943 86.462C31.9516 86.4527 31.709 86.4993 31.4663 86.602C31.2236 86.6953 31.037 86.854 30.9063 87.078C30.981 87.1527 31.0276 87.2413 31.0463 87.344C31.0743 87.4373 31.0883 87.526 31.0883 87.61C31.0883 87.7407 31.0323 87.89 30.9203 88.058C30.8083 88.2167 30.617 88.2913 30.3463 88.282C30.1223 88.282 29.9496 88.2073 29.8283 88.058C29.7163 87.8993 29.6603 87.7173 29.6603 87.512C29.6603 87.176 29.7816 86.8773 30.0243 86.616C30.2763 86.3547 30.617 86.1493 31.0463 86C31.4756 85.8507 31.9563 85.776 32.4883 85.776C33.291 85.776 33.8883 85.986 34.2803 86.406C34.6816 86.826 34.8823 87.4887 34.8823 88.394C34.8823 88.73 34.8823 89.052 34.8823 89.36C34.8823 89.668 34.8776 89.976 34.8683 90.284C34.8683 90.592 34.8683 90.9187 34.8683 91.264C34.8683 91.404 34.8636 91.5627 34.8543 91.74C34.845 91.9173 34.831 92.104 34.8123 92.3C34.971 92.2907 35.1343 92.2813 35.3023 92.272C35.4703 92.2627 35.629 92.258 35.7783 92.258V93H33.5523ZM33.4263 89.64C33.1276 89.6587 32.8196 89.7007 32.5023 89.766C32.1943 89.8313 31.9143 89.9293 31.6623 90.06C31.4103 90.1907 31.205 90.3587 31.0463 90.564C30.897 90.7693 30.8223 91.0167 30.8223 91.306C30.841 91.6233 30.9436 91.8567 31.1303 92.006C31.3263 92.1553 31.555 92.23 31.8163 92.23C32.143 92.23 32.4323 92.1693 32.6843 92.048C32.9363 91.9173 33.1836 91.74 33.4263 91.516C33.417 91.4133 33.4123 91.3107 33.4123 91.208C33.4123 91.096 33.4123 90.9793 33.4123 90.858C33.4123 90.774 33.4123 90.62 33.4123 90.396C33.4216 90.1627 33.4263 89.9107 33.4263 89.64Z" fill="white"/>
<path d="M36.6821 92.412C36.9621 92.412 37.1581 92.3467 37.2701 92.216C37.3821 92.0853 37.4474 91.9033 37.4661 91.67C37.4941 91.4367 37.5081 91.166 37.5081 90.858V87.946C37.5081 87.7967 37.5081 87.638 37.5081 87.47C37.5174 87.2927 37.5361 87.12 37.5641 86.952C37.4054 86.9613 37.2374 86.9707 37.0601 86.98C36.8827 86.98 36.7194 86.9847 36.5701 86.994V86.252H37.0461C37.4381 86.252 37.7367 86.21 37.9421 86.126C38.1474 86.042 38.2967 85.9533 38.3901 85.86H38.8941C38.9127 85.9907 38.9267 86.1727 38.9361 86.406C38.9454 86.6393 38.9547 86.9007 38.9641 87.19C39.1414 86.9287 39.3467 86.6953 39.5801 86.49C39.8134 86.2753 40.0654 86.1027 40.3361 85.972C40.6161 85.8413 40.9054 85.776 41.2041 85.776C41.4934 85.776 41.7407 85.8553 41.9461 86.014C42.1607 86.1633 42.2681 86.4107 42.2681 86.756C42.2681 86.8493 42.2401 86.9567 42.1841 87.078C42.1374 87.1993 42.0534 87.3067 41.9321 87.4C41.8201 87.484 41.6661 87.526 41.4701 87.526C41.2741 87.5167 41.1014 87.442 40.9521 87.302C40.8121 87.162 40.7467 86.9707 40.7561 86.728C40.5321 86.728 40.3081 86.798 40.0841 86.938C39.8601 87.0687 39.6501 87.246 39.4541 87.47C39.2674 87.694 39.1087 87.9367 38.9781 88.198V91.264C38.9781 91.432 38.9734 91.6047 38.9641 91.782C38.9641 91.95 38.9501 92.1227 38.9221 92.3C39.0714 92.2907 39.2254 92.286 39.3841 92.286C39.5427 92.2767 39.6874 92.2673 39.8181 92.258V93H36.6821V92.412Z" fill="white"/>
<path d="M47.0191 93C47.0004 92.8507 46.9864 92.72 46.9771 92.608C46.9678 92.496 46.9538 92.3793 46.9351 92.258C46.6178 92.5753 46.2771 92.818 45.9131 92.986C45.5491 93.1447 45.1711 93.224 44.7791 93.224C44.1071 93.224 43.5984 93.0607 43.2531 92.734C42.9171 92.398 42.7491 91.9827 42.7491 91.488C42.7491 91.0587 42.8751 90.6853 43.1271 90.368C43.3791 90.0507 43.7104 89.794 44.1211 89.598C44.5318 89.3927 44.9798 89.2433 45.4651 89.15C45.9504 89.0473 46.4264 88.996 46.8931 88.996V88.17C46.8931 87.8713 46.8651 87.596 46.8091 87.344C46.7531 87.0827 46.6364 86.8727 46.4591 86.714C46.2911 86.546 46.0251 86.462 45.6611 86.462C45.4184 86.4527 45.1758 86.4993 44.9331 86.602C44.6904 86.6953 44.5038 86.854 44.3731 87.078C44.4478 87.1527 44.4944 87.2413 44.5131 87.344C44.5411 87.4373 44.5551 87.526 44.5551 87.61C44.5551 87.7407 44.4991 87.89 44.3871 88.058C44.2751 88.2167 44.0838 88.2913 43.8131 88.282C43.5891 88.282 43.4164 88.2073 43.2951 88.058C43.1831 87.8993 43.1271 87.7173 43.1271 87.512C43.1271 87.176 43.2484 86.8773 43.4911 86.616C43.7431 86.3547 44.0838 86.1493 44.5131 86C44.9424 85.8507 45.4231 85.776 45.9551 85.776C46.7578 85.776 47.3551 85.986 47.7471 86.406C48.1484 86.826 48.3491 87.4887 48.3491 88.394C48.3491 88.73 48.3491 89.052 48.3491 89.36C48.3491 89.668 48.3444 89.976 48.3351 90.284C48.3351 90.592 48.3351 90.9187 48.3351 91.264C48.3351 91.404 48.3304 91.5627 48.3211 91.74C48.3118 91.9173 48.2978 92.104 48.2791 92.3C48.4378 92.2907 48.6011 92.2813 48.7691 92.272C48.9371 92.2627 49.0958 92.258 49.2451 92.258V93H47.0191ZM46.8931 89.64C46.5944 89.6587 46.2864 89.7007 45.9691 89.766C45.6611 89.8313 45.3811 89.9293 45.1291 90.06C44.8771 90.1907 44.6718 90.3587 44.5131 90.564C44.3638 90.7693 44.2891 91.0167 44.2891 91.306C44.3078 91.6233 44.4104 91.8567 44.5971 92.006C44.7931 92.1553 45.0218 92.23 45.2831 92.23C45.6098 92.23 45.8991 92.1693 46.1511 92.048C46.4031 91.9173 46.6504 91.74 46.8931 91.516C46.8838 91.4133 46.8791 91.3107 46.8791 91.208C46.8791 91.096 46.8791 90.9793 46.8791 90.858C46.8791 90.774 46.8791 90.62 46.8791 90.396C46.8884 90.1627 46.8931 89.9107 46.8931 89.64Z" fill="white"/>
<path d="M53.5229 93.224C52.8975 93.224 52.3235 93.084 51.8009 92.804C51.2782 92.5147 50.8582 92.104 50.5409 91.572C50.2329 91.04 50.0789 90.396 50.0789 89.64C50.0789 89.136 50.1675 88.6553 50.3449 88.198C50.5222 87.7313 50.7695 87.316 51.0869 86.952C51.4135 86.588 51.7962 86.3033 52.2349 86.098C52.6829 85.8833 53.1775 85.776 53.7189 85.776C54.2695 85.776 54.7409 85.86 55.1329 86.028C55.5249 86.196 55.8235 86.4153 56.0289 86.686C56.2435 86.9567 56.3509 87.2507 56.3509 87.568C56.3509 87.792 56.2855 87.988 56.1549 88.156C56.0242 88.324 55.8375 88.408 55.5949 88.408C55.3242 88.4173 55.1329 88.338 55.0209 88.17C54.9089 87.9927 54.8529 87.8293 54.8529 87.68C54.8529 87.596 54.8669 87.5027 54.8949 87.4C54.9229 87.288 54.9742 87.19 55.0489 87.106C54.9742 86.91 54.8529 86.7653 54.6849 86.672C54.5169 86.5787 54.3442 86.518 54.1669 86.49C53.9895 86.462 53.8402 86.448 53.7189 86.448C53.1495 86.4573 52.6689 86.7047 52.2769 87.19C51.8942 87.666 51.7029 88.3567 51.7029 89.262C51.7029 89.8407 51.7869 90.3587 51.9549 90.816C52.1322 91.2733 52.3889 91.6373 52.7249 91.908C53.0609 92.1787 53.4622 92.3187 53.9289 92.328C54.3489 92.328 54.7549 92.2207 55.1469 92.006C55.5389 91.782 55.8562 91.502 56.0989 91.166L56.5469 91.558C56.2762 91.978 55.9635 92.3093 55.6089 92.552C55.2635 92.7947 54.9089 92.9673 54.5449 93.07C54.1902 93.1727 53.8495 93.224 53.5229 93.224Z" fill="white"/>
<path d="M60.1647 93.224C59.9313 93.224 59.698 93.1913 59.4647 93.126C59.2313 93.07 59.012 92.9533 58.8067 92.776C58.6107 92.5893 58.4567 92.3233 58.3447 91.978C58.2327 91.6327 58.1767 91.1753 58.1767 90.606L58.2047 86.784H57.1687V86C57.4207 85.9907 57.6773 85.8973 57.9387 85.72C58.2 85.5427 58.4287 85.3047 58.6247 85.006C58.8207 84.7073 58.956 84.3853 59.0307 84.04H59.6887V86H61.8447V86.728L59.6887 86.756L59.6607 90.494C59.6607 90.8487 59.6887 91.1613 59.7447 91.432C59.81 91.6933 59.9127 91.8987 60.0527 92.048C60.202 92.188 60.4027 92.258 60.6547 92.258C60.8693 92.258 61.0887 92.1927 61.3127 92.062C61.546 91.9313 61.7653 91.7167 61.9707 91.418L62.4467 91.838C62.2227 92.1647 61.9987 92.4213 61.7747 92.608C61.5507 92.7947 61.336 92.93 61.1307 93.014C60.9253 93.1073 60.7387 93.1633 60.5707 93.182C60.4027 93.21 60.2673 93.224 60.1647 93.224Z" fill="white"/>
<path d="M66.4014 93.224C65.7481 93.224 65.1601 93.0747 64.6374 92.776C64.1241 92.468 63.7181 92.0387 63.4194 91.488C63.1208 90.928 62.9714 90.27 62.9714 89.514C62.9714 88.8607 63.1161 88.2493 63.4054 87.68C63.7041 87.1107 64.1194 86.6533 64.6514 86.308C65.1834 85.9533 65.7994 85.776 66.4994 85.776C66.8914 85.776 67.2601 85.8367 67.6054 85.958C67.9601 86.0793 68.2728 86.2707 68.5434 86.532C68.8234 86.784 69.0428 87.1153 69.2014 87.526C69.3601 87.9273 69.4394 88.4173 69.4394 88.996L64.6234 89.08C64.6234 89.7147 64.6934 90.2793 64.8334 90.774C64.9828 91.2687 65.2208 91.6513 65.5474 91.922C65.8741 92.1927 66.2988 92.328 66.8214 92.328C67.0734 92.328 67.3394 92.286 67.6194 92.202C67.9088 92.1087 68.1794 91.978 68.4314 91.81C68.6928 91.642 68.9121 91.4413 69.0894 91.208L69.5234 91.586C69.2434 92.006 68.9214 92.3373 68.5574 92.58C68.1934 92.8133 67.8201 92.9767 67.4374 93.07C67.0641 93.1727 66.7188 93.224 66.4014 93.224ZM64.6794 88.352H67.9134C67.9134 87.9973 67.8621 87.68 67.7594 87.4C67.6661 87.1107 67.5168 86.882 67.3114 86.714C67.1061 86.546 66.8448 86.462 66.5274 86.462C66.0328 86.462 65.6268 86.6207 65.3094 86.938C64.9921 87.246 64.7821 87.7173 64.6794 88.352Z" fill="white"/>
<path d="M70.6157 92.412C70.8957 92.412 71.0917 92.3467 71.2037 92.216C71.3157 92.0853 71.381 91.9033 71.3997 91.67C71.4277 91.4367 71.4417 91.166 71.4417 90.858V87.946C71.4417 87.7967 71.4417 87.638 71.4417 87.47C71.451 87.2927 71.4697 87.12 71.4977 86.952C71.339 86.9613 71.171 86.9707 70.9937 86.98C70.8163 86.98 70.653 86.9847 70.5037 86.994V86.252H70.9797C71.3717 86.252 71.6703 86.21 71.8757 86.126C72.081 86.042 72.2303 85.9533 72.3237 85.86H72.8277C72.8463 85.9907 72.8603 86.1727 72.8697 86.406C72.879 86.6393 72.8883 86.9007 72.8977 87.19C73.075 86.9287 73.2803 86.6953 73.5137 86.49C73.747 86.2753 73.999 86.1027 74.2697 85.972C74.5497 85.8413 74.839 85.776 75.1377 85.776C75.427 85.776 75.6743 85.8553 75.8797 86.014C76.0943 86.1633 76.2017 86.4107 76.2017 86.756C76.2017 86.8493 76.1737 86.9567 76.1177 87.078C76.071 87.1993 75.987 87.3067 75.8657 87.4C75.7537 87.484 75.5997 87.526 75.4037 87.526C75.2077 87.5167 75.035 87.442 74.8857 87.302C74.7457 87.162 74.6803 86.9707 74.6897 86.728C74.4657 86.728 74.2417 86.798 74.0177 86.938C73.7937 87.0687 73.5837 87.246 73.3877 87.47C73.201 87.694 73.0423 87.9367 72.9117 88.198V91.264C72.9117 91.432 72.907 91.6047 72.8977 91.782C72.8977 91.95 72.8837 92.1227 72.8557 92.3C73.005 92.2907 73.159 92.286 73.3177 92.286C73.4763 92.2767 73.621 92.2673 73.7517 92.258V93H70.6157V92.412Z" fill="white"/>
<path d="M86.2804 86.224C86.2338 85.748 86.1125 85.3187 85.9165 84.936C85.7205 84.5533 85.4498 84.25 85.1045 84.026C84.7591 83.7927 84.3298 83.6807 83.8165 83.69C83.2938 83.69 82.8784 83.8347 82.5704 84.124C82.2624 84.4133 82.1085 84.7633 82.1085 85.174C82.1085 85.538 82.2111 85.846 82.4165 86.098C82.6218 86.3407 82.8971 86.56 83.2425 86.756C83.5971 86.952 83.9938 87.148 84.4324 87.344C84.7871 87.4933 85.1465 87.6613 85.5105 87.848C85.8745 88.0347 86.2058 88.2493 86.5044 88.492C86.8031 88.7253 87.0411 89.01 87.2185 89.346C87.3958 89.6727 87.4845 90.06 87.4845 90.508C87.4845 91.0307 87.3491 91.4973 87.0785 91.908C86.8078 92.3187 86.4205 92.6407 85.9165 92.874C85.4218 93.1073 84.8198 93.224 84.1105 93.224C83.7091 93.224 83.2844 93.1633 82.8364 93.042C82.3978 92.9207 81.9965 92.748 81.6325 92.524L81.7025 93.112H80.8484L80.7924 90.032H81.4645C81.5391 90.844 81.8285 91.46 82.3325 91.88C82.8458 92.2907 83.4571 92.496 84.1665 92.496C84.5211 92.496 84.8431 92.4307 85.1325 92.3C85.4218 92.1693 85.6505 91.9827 85.8185 91.74C85.9865 91.4973 86.0704 91.2127 86.0704 90.886C86.0704 90.5033 85.9538 90.1813 85.7205 89.92C85.4965 89.6587 85.2071 89.4347 84.8524 89.248C84.5071 89.0613 84.1431 88.884 83.7605 88.716C83.3778 88.548 83.0044 88.3707 82.6404 88.184C82.2858 87.9973 81.9638 87.7827 81.6745 87.54C81.3851 87.2973 81.1564 87.0127 80.9884 86.686C80.8204 86.35 80.7365 85.958 80.7365 85.51C80.7365 85.2487 80.7831 84.9733 80.8764 84.684C80.9698 84.3947 81.1284 84.1193 81.3524 83.858C81.5764 83.5967 81.8798 83.3867 82.2625 83.228C82.6545 83.06 83.1445 82.976 83.7325 82.976C84.0871 82.976 84.4838 83.0273 84.9225 83.13C85.3705 83.2327 85.7764 83.4147 86.1404 83.676L86.0844 83.088H86.9245V86.224H86.2804Z" fill="white"/>
<path d="M93.0172 92.412C93.2972 92.412 93.4932 92.3467 93.6052 92.216C93.7265 92.0853 93.7965 91.9033 93.8152 91.67C93.8432 91.4367 93.8572 91.166 93.8572 90.858L93.8432 88.898C93.8432 88.1607 93.7265 87.61 93.4932 87.246C93.2692 86.8727 92.9052 86.6907 92.4012 86.7C92.0932 86.7093 91.7899 86.784 91.4912 86.924C91.2019 87.064 90.9592 87.2413 90.7632 87.456V91.264C90.7632 91.432 90.7585 91.6047 90.7492 91.782C90.7399 91.95 90.7259 92.1227 90.7072 92.3C90.8565 92.2907 91.0058 92.286 91.1552 92.286C91.3138 92.2767 91.4585 92.2673 91.5892 92.258V93H88.4672V92.412C88.7472 92.412 88.9432 92.3467 89.0552 92.216C89.1672 92.0853 89.2372 91.9033 89.2652 91.67C89.2932 91.4367 89.3072 91.166 89.3072 90.858V84.53C89.3072 84.3713 89.3072 84.2127 89.3072 84.054C89.3165 83.886 89.3305 83.7087 89.3492 83.522C89.1905 83.5313 89.0225 83.5407 88.8452 83.55C88.6679 83.55 88.5045 83.5547 88.3552 83.564V82.822C88.7752 82.822 89.1112 82.8033 89.3632 82.766C89.6152 82.7193 89.8065 82.668 89.9372 82.612C90.0772 82.556 90.1799 82.4953 90.2452 82.43H90.7632V86.658C90.9685 86.49 91.1972 86.3407 91.4492 86.21C91.7012 86.0793 91.9579 85.9767 92.2192 85.902C92.4899 85.818 92.7419 85.776 92.9752 85.776C93.8059 85.776 94.3985 86.028 94.7532 86.532C95.1172 87.036 95.3039 87.8247 95.3132 88.898V91.264C95.3132 91.432 95.3085 91.6047 95.2992 91.782C95.2992 91.95 95.2852 92.1227 95.2572 92.3C95.4065 92.2907 95.5605 92.286 95.7192 92.286C95.8779 92.2767 96.0225 92.2673 96.1532 92.258V93H93.0172V92.412Z" fill="white"/>
<path d="M100.485 93.224C99.8321 93.224 99.2441 93.0747 98.7214 92.776C98.2081 92.468 97.8021 92.0387 97.5034 91.488C97.2048 90.928 97.0554 90.27 97.0554 89.514C97.0554 88.8607 97.2001 88.2493 97.4894 87.68C97.7881 87.1107 98.2034 86.6533 98.7354 86.308C99.2674 85.9533 99.8834 85.776 100.583 85.776C100.975 85.776 101.344 85.8367 101.689 85.958C102.044 86.0793 102.357 86.2707 102.627 86.532C102.907 86.784 103.127 87.1153 103.285 87.526C103.444 87.9273 103.523 88.4173 103.523 88.996L98.7074 89.08C98.7074 89.7147 98.7774 90.2793 98.9174 90.774C99.0668 91.2687 99.3047 91.6513 99.6314 91.922C99.9581 92.1927 100.383 92.328 100.905 92.328C101.157 92.328 101.423 92.286 101.703 92.202C101.993 92.1087 102.263 91.978 102.515 91.81C102.777 91.642 102.996 91.4413 103.173 91.208L103.607 91.586C103.327 92.006 103.005 92.3373 102.641 92.58C102.277 92.8133 101.904 92.9767 101.521 93.07C101.148 93.1727 100.803 93.224 100.485 93.224ZM98.7634 88.352H101.997C101.997 87.9973 101.946 87.68 101.843 87.4C101.75 87.1107 101.601 86.882 101.395 86.714C101.19 86.546 100.929 86.462 100.611 86.462C100.117 86.462 99.7108 86.6207 99.3934 86.938C99.0761 87.246 98.8661 87.7173 98.7634 88.352Z" fill="white"/>
<path d="M108.019 93.224C107.365 93.224 106.777 93.0747 106.255 92.776C105.741 92.468 105.335 92.0387 105.037 91.488C104.738 90.928 104.589 90.27 104.589 89.514C104.589 88.8607 104.733 88.2493 105.023 87.68C105.321 87.1107 105.737 86.6533 106.269 86.308C106.801 85.9533 107.417 85.776 108.117 85.776C108.509 85.776 108.877 85.8367 109.223 85.958C109.577 86.0793 109.89 86.2707 110.161 86.532C110.441 86.784 110.66 87.1153 110.819 87.526C110.977 87.9273 111.057 88.4173 111.057 88.996L106.241 89.08C106.241 89.7147 106.311 90.2793 106.451 90.774C106.6 91.2687 106.838 91.6513 107.165 91.922C107.491 92.1927 107.916 92.328 108.439 92.328C108.691 92.328 108.957 92.286 109.237 92.202C109.526 92.1087 109.797 91.978 110.049 91.81C110.31 91.642 110.529 91.4413 110.707 91.208L111.141 91.586C110.861 92.006 110.539 92.3373 110.175 92.58C109.811 92.8133 109.437 92.9767 109.055 93.07C108.681 93.1727 108.336 93.224 108.019 93.224ZM106.297 88.352H109.531C109.531 87.9973 109.479 87.68 109.377 87.4C109.283 87.1107 109.134 86.882 108.929 86.714C108.723 86.546 108.462 86.462 108.145 86.462C107.65 86.462 107.244 86.6207 106.927 86.938C106.609 87.246 106.399 87.7173 106.297 88.352Z" fill="white"/>
<path d="M114.838 93.224C114.605 93.224 114.372 93.1913 114.138 93.126C113.905 93.07 113.686 92.9533 113.48 92.776C113.284 92.5893 113.13 92.3233 113.018 91.978C112.906 91.6327 112.85 91.1753 112.85 90.606L112.878 86.784H111.842V86C112.094 85.9907 112.351 85.8973 112.612 85.72C112.874 85.5427 113.102 85.3047 113.298 85.006C113.494 84.7073 113.63 84.3853 113.704 84.04H114.362V86H116.518V86.728L114.362 86.756L114.334 90.494C114.334 90.8487 114.362 91.1613 114.418 91.432C114.484 91.6933 114.586 91.8987 114.726 92.048C114.876 92.188 115.076 92.258 115.328 92.258C115.543 92.258 115.762 92.1927 115.986 92.062C116.22 91.9313 116.439 91.7167 116.644 91.418L117.12 91.838C116.896 92.1647 116.672 92.4213 116.448 92.608C116.224 92.7947 116.01 92.93 115.804 93.014C115.599 93.1073 115.412 93.1633 115.244 93.182C115.076 93.21 114.941 93.224 114.838 93.224Z" fill="white"/>
<path d="M129.107 86.322C129.004 85.482 128.715 84.838 128.239 84.39C127.763 83.9327 127.142 83.6993 126.377 83.69C125.892 83.69 125.444 83.7973 125.033 84.012C124.622 84.2267 124.268 84.53 123.969 84.922C123.67 85.3047 123.437 85.762 123.269 86.294C123.11 86.8167 123.031 87.3907 123.031 88.016C123.031 88.8653 123.18 89.6213 123.479 90.284C123.778 90.9373 124.188 91.446 124.711 91.81C125.243 92.174 125.845 92.356 126.517 92.356C127.114 92.356 127.702 92.216 128.281 91.936C128.869 91.6467 129.354 91.2407 129.737 90.718L130.199 91.11C129.779 91.6887 129.331 92.132 128.855 92.44C128.379 92.748 127.903 92.9533 127.427 93.056C126.96 93.168 126.536 93.224 126.153 93.224C125.453 93.224 124.809 93.098 124.221 92.846C123.633 92.594 123.124 92.244 122.695 91.796C122.275 91.3387 121.948 90.8113 121.715 90.214C121.491 89.6073 121.379 88.954 121.379 88.254C121.379 87.6007 121.482 86.9613 121.687 86.336C121.892 85.7107 122.196 85.146 122.597 84.642C122.998 84.1287 123.502 83.7227 124.109 83.424C124.725 83.1253 125.439 82.976 126.251 82.976C126.727 82.976 127.189 83.0413 127.637 83.172C128.094 83.3027 128.533 83.5033 128.953 83.774L128.883 83.074H129.751V86.322H129.107Z" fill="white"/>
<path d="M131.127 92.412C131.407 92.412 131.603 92.3467 131.715 92.216C131.827 92.0853 131.893 91.9033 131.911 91.67C131.939 91.4367 131.953 91.166 131.953 90.858V87.946C131.953 87.7967 131.953 87.638 131.953 87.47C131.963 87.2927 131.981 87.12 132.009 86.952C131.851 86.9613 131.683 86.9707 131.505 86.98C131.328 86.98 131.165 86.9847 131.015 86.994V86.252H131.491C131.883 86.252 132.182 86.21 132.387 86.126C132.593 86.042 132.742 85.9533 132.835 85.86H133.339C133.358 85.9907 133.372 86.1727 133.381 86.406C133.391 86.6393 133.4 86.9007 133.409 87.19C133.587 86.9287 133.792 86.6953 134.025 86.49C134.259 86.2753 134.511 86.1027 134.781 85.972C135.061 85.8413 135.351 85.776 135.649 85.776C135.939 85.776 136.186 85.8553 136.391 86.014C136.606 86.1633 136.713 86.4107 136.713 86.756C136.713 86.8493 136.685 86.9567 136.629 87.078C136.583 87.1993 136.499 87.3067 136.377 87.4C136.265 87.484 136.111 87.526 135.915 87.526C135.719 87.5167 135.547 87.442 135.397 87.302C135.257 87.162 135.192 86.9707 135.201 86.728C134.977 86.728 134.753 86.798 134.529 86.938C134.305 87.0687 134.095 87.246 133.899 87.47C133.713 87.694 133.554 87.9367 133.423 88.198V91.264C133.423 91.432 133.419 91.6047 133.409 91.782C133.409 91.95 133.395 92.1227 133.367 92.3C133.517 92.2907 133.671 92.286 133.829 92.286C133.988 92.2767 134.133 92.2673 134.263 92.258V93H131.127V92.412Z" fill="white"/>
<path d="M140.681 93.224C140.027 93.224 139.439 93.0747 138.917 92.776C138.403 92.468 137.997 92.0387 137.699 91.488C137.4 90.928 137.251 90.27 137.251 89.514C137.251 88.8607 137.395 88.2493 137.685 87.68C137.983 87.1107 138.399 86.6533 138.931 86.308C139.463 85.9533 140.079 85.776 140.779 85.776C141.171 85.776 141.539 85.8367 141.885 85.958C142.239 86.0793 142.552 86.2707 142.823 86.532C143.103 86.784 143.322 87.1153 143.481 87.526C143.639 87.9273 143.719 88.4173 143.719 88.996L138.903 89.08C138.903 89.7147 138.973 90.2793 139.113 90.774C139.262 91.2687 139.5 91.6513 139.827 91.922C140.153 92.1927 140.578 92.328 141.101 92.328C141.353 92.328 141.619 92.286 141.899 92.202C142.188 92.1087 142.459 91.978 142.711 91.81C142.972 91.642 143.191 91.4413 143.369 91.208L143.803 91.586C143.523 92.006 143.201 92.3373 142.837 92.58C142.473 92.8133 142.099 92.9767 141.717 93.07C141.343 93.1727 140.998 93.224 140.681 93.224ZM138.959 88.352H142.193C142.193 87.9973 142.141 87.68 142.039 87.4C141.945 87.1107 141.796 86.882 141.591 86.714C141.385 86.546 141.124 86.462 140.807 86.462C140.312 86.462 139.906 86.6207 139.589 86.938C139.271 87.246 139.061 87.7173 138.959 88.352Z" fill="white"/>
<path d="M149.011 93C148.993 92.8507 148.979 92.72 148.969 92.608C148.96 92.496 148.946 92.3793 148.927 92.258C148.61 92.5753 148.269 92.818 147.905 92.986C147.541 93.1447 147.163 93.224 146.771 93.224C146.099 93.224 145.591 93.0607 145.245 92.734C144.909 92.398 144.741 91.9827 144.741 91.488C144.741 91.0587 144.867 90.6853 145.119 90.368C145.371 90.0507 145.703 89.794 146.113 89.598C146.524 89.3927 146.972 89.2433 147.457 89.15C147.943 89.0473 148.419 88.996 148.885 88.996V88.17C148.885 87.8713 148.857 87.596 148.801 87.344C148.745 87.0827 148.629 86.8727 148.451 86.714C148.283 86.546 148.017 86.462 147.653 86.462C147.411 86.4527 147.168 86.4993 146.925 86.602C146.683 86.6953 146.496 86.854 146.365 87.078C146.44 87.1527 146.487 87.2413 146.505 87.344C146.533 87.4373 146.547 87.526 146.547 87.61C146.547 87.7407 146.491 87.89 146.379 88.058C146.267 88.2167 146.076 88.2913 145.805 88.282C145.581 88.282 145.409 88.2073 145.287 88.058C145.175 87.8993 145.119 87.7173 145.119 87.512C145.119 87.176 145.241 86.8773 145.483 86.616C145.735 86.3547 146.076 86.1493 146.505 86C146.935 85.8507 147.415 85.776 147.947 85.776C148.75 85.776 149.347 85.986 149.739 86.406C150.141 86.826 150.341 87.4887 150.341 88.394C150.341 88.73 150.341 89.052 150.341 89.36C150.341 89.668 150.337 89.976 150.327 90.284C150.327 90.592 150.327 90.9187 150.327 91.264C150.327 91.404 150.323 91.5627 150.313 91.74C150.304 91.9173 150.29 92.104 150.271 92.3C150.43 92.2907 150.593 92.2813 150.761 92.272C150.929 92.2627 151.088 92.258 151.237 92.258V93H149.011ZM148.885 89.64C148.587 89.6587 148.279 89.7007 147.961 89.766C147.653 89.8313 147.373 89.9293 147.121 90.06C146.869 90.1907 146.664 90.3587 146.505 90.564C146.356 90.7693 146.281 91.0167 146.281 91.306C146.3 91.6233 146.403 91.8567 146.589 92.006C146.785 92.1553 147.014 92.23 147.275 92.23C147.602 92.23 147.891 92.1693 148.143 92.048C148.395 91.9173 148.643 91.74 148.885 91.516C148.876 91.4133 148.871 91.3107 148.871 91.208C148.871 91.096 148.871 90.9793 148.871 90.858C148.871 90.774 148.871 90.62 148.871 90.396C148.881 90.1627 148.885 89.9107 148.885 89.64Z" fill="white"/>
<path d="M154.733 93.224C154.5 93.224 154.266 93.1913 154.033 93.126C153.8 93.07 153.58 92.9533 153.375 92.776C153.179 92.5893 153.025 92.3233 152.913 91.978C152.801 91.6327 152.745 91.1753 152.745 90.606L152.773 86.784H151.737V86C151.989 85.9907 152.246 85.8973 152.507 85.72C152.768 85.5427 152.997 85.3047 153.193 85.006C153.389 84.7073 153.524 84.3853 153.599 84.04H154.257V86H156.413V86.728L154.257 86.756L154.229 90.494C154.229 90.8487 154.257 91.1613 154.313 91.432C154.378 91.6933 154.481 91.8987 154.621 92.048C154.77 92.188 154.971 92.258 155.223 92.258C155.438 92.258 155.657 92.1927 155.881 92.062C156.114 91.9313 156.334 91.7167 156.539 91.418L157.015 91.838C156.791 92.1647 156.567 92.4213 156.343 92.608C156.119 92.7947 155.904 92.93 155.699 93.014C155.494 93.1073 155.307 93.1633 155.139 93.182C154.971 93.21 154.836 93.224 154.733 93.224Z" fill="white"/>
<path d="M161.068 93.224C160.405 93.224 159.808 93.0747 159.276 92.776C158.744 92.4773 158.319 92.062 158.002 91.53C157.694 90.9887 157.54 90.368 157.54 89.668C157.54 88.912 157.694 88.2447 158.002 87.666C158.319 87.078 158.744 86.616 159.276 86.28C159.808 85.944 160.4 85.776 161.054 85.776C161.716 85.776 162.314 85.93 162.846 86.238C163.378 86.5367 163.798 86.9567 164.106 87.498C164.423 88.03 164.582 88.646 164.582 89.346C164.582 90.0833 164.428 90.746 164.12 91.334C163.812 91.922 163.392 92.384 162.86 92.72C162.337 93.056 161.74 93.224 161.068 93.224ZM161.166 92.524C161.614 92.5147 161.964 92.3747 162.216 92.104C162.477 91.8333 162.664 91.488 162.776 91.068C162.888 90.6387 162.944 90.1953 162.944 89.738C162.944 89.3367 162.906 88.9447 162.832 88.562C162.766 88.17 162.659 87.8153 162.51 87.498C162.36 87.1807 162.164 86.9287 161.922 86.742C161.679 86.546 161.385 86.4527 161.04 86.462C160.601 86.462 160.242 86.5973 159.962 86.868C159.691 87.1387 159.49 87.4887 159.36 87.918C159.238 88.338 159.178 88.786 159.178 89.262C159.178 89.8127 159.248 90.3353 159.388 90.83C159.528 91.3247 159.742 91.7307 160.032 92.048C160.33 92.3653 160.708 92.524 161.166 92.524Z" fill="white"/>
<path d="M165.717 92.412C165.997 92.412 166.193 92.3467 166.305 92.216C166.417 92.0853 166.483 91.9033 166.501 91.67C166.529 91.4367 166.543 91.166 166.543 90.858V87.946C166.543 87.7967 166.543 87.638 166.543 87.47C166.553 87.2927 166.571 87.12 166.599 86.952C166.441 86.9613 166.273 86.9707 166.095 86.98C165.918 86.98 165.755 86.9847 165.605 86.994V86.252H166.081C166.473 86.252 166.772 86.21 166.977 86.126C167.183 86.042 167.332 85.9533 167.425 85.86H167.929C167.948 85.9907 167.962 86.1727 167.971 86.406C167.981 86.6393 167.99 86.9007 167.999 87.19C168.177 86.9287 168.382 86.6953 168.615 86.49C168.849 86.2753 169.101 86.1027 169.371 85.972C169.651 85.8413 169.941 85.776 170.239 85.776C170.529 85.776 170.776 85.8553 170.981 86.014C171.196 86.1633 171.303 86.4107 171.303 86.756C171.303 86.8493 171.275 86.9567 171.219 87.078C171.173 87.1993 171.089 87.3067 170.967 87.4C170.855 87.484 170.701 87.526 170.505 87.526C170.309 87.5167 170.137 87.442 169.987 87.302C169.847 87.162 169.782 86.9707 169.791 86.728C169.567 86.728 169.343 86.798 169.119 86.938C168.895 87.0687 168.685 87.246 168.489 87.47C168.303 87.694 168.144 87.9367 168.013 88.198V91.264C168.013 91.432 168.009 91.6047 167.999 91.782C167.999 91.95 167.985 92.1227 167.957 92.3C168.107 92.2907 168.261 92.286 168.419 92.286C168.578 92.2767 168.723 92.2673 168.853 92.258V93H165.717V92.412Z" fill="white"/>
</svg>
